G04 #@! TF.GenerationSoftware,KiCad,Pcbnew,(7.0.0-0)*
G04 #@! TF.CreationDate,2023-03-24T11:35:07+09:00*
G04 #@! TF.ProjectId,K68-SC1602,4b36382d-5343-4313-9630-322e6b696361,rev?*
G04 #@! TF.SameCoordinates,PX5f5e100PY8f0d180*
G04 #@! TF.FileFunction,Copper,L1,Top*
G04 #@! TF.FilePolarity,Positive*
%FSLAX46Y46*%
G04 Gerber Fmt 4.6, Leading zero omitted, Abs format (unit mm)*
G04 Created by KiCad (PCBNEW (7.0.0-0)) date 2023-03-24 11:35:07*
%MOMM*%
%LPD*%
G01*
G04 APERTURE LIST*
G04 #@! TA.AperFunction,ComponentPad*
%ADD10R,1.600000X1.600000*%
G04 #@! TD*
G04 #@! TA.AperFunction,ComponentPad*
%ADD11O,1.600000X1.600000*%
G04 #@! TD*
G04 #@! TA.AperFunction,ComponentPad*
%ADD12R,1.700000X1.700000*%
G04 #@! TD*
G04 #@! TA.AperFunction,ComponentPad*
%ADD13O,1.700000X1.700000*%
G04 #@! TD*
G04 #@! TA.AperFunction,ComponentPad*
%ADD14C,1.600000*%
G04 #@! TD*
G04 #@! TA.AperFunction,ComponentPad*
%ADD15C,1.440000*%
G04 #@! TD*
G04 #@! TA.AperFunction,ViaPad*
%ADD16C,0.600000*%
G04 #@! TD*
G04 #@! TA.AperFunction,Conductor*
%ADD17C,0.600000*%
G04 #@! TD*
G04 #@! TA.AperFunction,Conductor*
%ADD18C,0.200000*%
G04 #@! TD*
G04 APERTURE END LIST*
D10*
X57249999Y60324999D03*
D11*
X57249999Y62864999D03*
X57249999Y65404999D03*
X57249999Y67944999D03*
X57249999Y70484999D03*
X57249999Y73024999D03*
X57249999Y75564999D03*
X57249999Y78104999D03*
X57249999Y80644999D03*
D12*
X64444999Y50024999D03*
D13*
X66984999Y50024999D03*
X69524999Y50024999D03*
D14*
X82750000Y83000000D03*
X85250000Y83000000D03*
D15*
X81100000Y51500000D03*
X83640000Y54040000D03*
X81100000Y56580000D03*
D14*
X63445000Y56025000D03*
D11*
X73604999Y56024999D03*
D14*
X70250000Y83000000D03*
X72750000Y83000000D03*
D10*
X84389999Y90849499D03*
D14*
X84390000Y93349500D03*
D12*
X4219999Y87779999D03*
D13*
X6759999Y87779999D03*
X4219999Y85239999D03*
X6759999Y85239999D03*
X4219999Y82699999D03*
X6759999Y82699999D03*
X4219999Y80159999D03*
X6759999Y80159999D03*
X4219999Y77619999D03*
X6759999Y77619999D03*
X4219999Y75079999D03*
X6759999Y75079999D03*
X4219999Y72539999D03*
X6759999Y72539999D03*
D10*
X28379999Y75899999D03*
D11*
X28379999Y73359999D03*
X28379999Y70819999D03*
X28379999Y68279999D03*
X28379999Y65739999D03*
X28379999Y63199999D03*
X28379999Y60659999D03*
X35999999Y60659999D03*
X35999999Y63199999D03*
X35999999Y65739999D03*
X35999999Y68279999D03*
X35999999Y70819999D03*
X35999999Y73359999D03*
X35999999Y75899999D03*
D12*
X46259999Y78339999D03*
D13*
X48799999Y78339999D03*
X46259999Y75799999D03*
X48799999Y75799999D03*
X46259999Y73259999D03*
X48799999Y73259999D03*
X46259999Y70719999D03*
X48799999Y70719999D03*
X46259999Y68179999D03*
X48799999Y68179999D03*
X46259999Y65639999D03*
X48799999Y65639999D03*
X46259999Y63099999D03*
X48799999Y63099999D03*
X46259999Y60559999D03*
X48799999Y60559999D03*
D10*
X64449999Y79699999D03*
D11*
X64449999Y77159999D03*
X64449999Y74619999D03*
X64449999Y72079999D03*
X64449999Y69539999D03*
X64449999Y66999999D03*
X64449999Y64459999D03*
X64449999Y61919999D03*
X72069999Y61919999D03*
X72069999Y64459999D03*
X72069999Y66999999D03*
X72069999Y69539999D03*
X72069999Y72079999D03*
X72069999Y74619999D03*
X72069999Y77159999D03*
X72069999Y79699999D03*
D12*
X22069999Y42969999D03*
D13*
X24609999Y42969999D03*
X27149999Y42969999D03*
X29689999Y42969999D03*
X32229999Y42969999D03*
X34769999Y42969999D03*
X37309999Y42969999D03*
X39849999Y42969999D03*
X42389999Y42969999D03*
X44929999Y42969999D03*
X47469999Y42969999D03*
X50009999Y42969999D03*
X52549999Y42969999D03*
X55089999Y42969999D03*
X57629999Y42969999D03*
X60169999Y42969999D03*
D12*
X26019999Y87159999D03*
D13*
X26019999Y89699999D03*
X28559999Y87159999D03*
X28559999Y89699999D03*
X31099999Y87159999D03*
X31099999Y89699999D03*
X33639999Y87159999D03*
X33639999Y89699999D03*
X36179999Y87159999D03*
X36179999Y89699999D03*
X38719999Y87159999D03*
X38719999Y89699999D03*
X41259999Y87159999D03*
X41259999Y89699999D03*
X43799999Y87159999D03*
X43799999Y89699999D03*
X46339999Y87159999D03*
X46339999Y89699999D03*
X48879999Y87159999D03*
X48879999Y89699999D03*
X51419999Y87159999D03*
X51419999Y89699999D03*
X53959999Y87159999D03*
X53959999Y89699999D03*
X56499999Y87159999D03*
X56499999Y89699999D03*
X59039999Y87159999D03*
X59039999Y89699999D03*
X61579999Y87159999D03*
X61579999Y89699999D03*
X64119999Y87159999D03*
X64119999Y89699999D03*
X66659999Y87159999D03*
X66659999Y89699999D03*
X69199999Y87159999D03*
X69199999Y89699999D03*
X71739999Y87159999D03*
X71739999Y89699999D03*
X74279999Y87159999D03*
X74279999Y89699999D03*
D12*
X4219999Y58909999D03*
D13*
X6759999Y58909999D03*
X4219999Y56369999D03*
X6759999Y56369999D03*
X4219999Y53829999D03*
X6759999Y53829999D03*
X4219999Y51289999D03*
X6759999Y51289999D03*
X4219999Y48749999D03*
X6759999Y48749999D03*
X4219999Y46209999D03*
X6759999Y46209999D03*
X4219999Y43669999D03*
X6759999Y43669999D03*
D14*
X33850000Y79100000D03*
X36350000Y79100000D03*
D10*
X77199999Y79624999D03*
D11*
X77199999Y77084999D03*
X77199999Y74544999D03*
X77199999Y72004999D03*
X77199999Y69464999D03*
X77199999Y66924999D03*
X77199999Y64384999D03*
X84819999Y64384999D03*
X84819999Y66924999D03*
X84819999Y69464999D03*
X84819999Y72004999D03*
X84819999Y74544999D03*
X84819999Y77084999D03*
X84819999Y79624999D03*
D12*
X7869999Y4749999D03*
D13*
X5329999Y4749999D03*
X7869999Y7289999D03*
X5329999Y7289999D03*
X7869999Y9829999D03*
X5329999Y9829999D03*
X7869999Y12369999D03*
X5329999Y12369999D03*
X7869999Y14909999D03*
X5329999Y14909999D03*
X7869999Y17449999D03*
X5329999Y17449999D03*
X7869999Y19989999D03*
X5329999Y19989999D03*
D16*
X39785800Y72147800D03*
X60641700Y45706000D03*
X35629900Y45862900D03*
X40033500Y63262700D03*
D17*
X6809900Y41606700D02*
X7760000Y40656600D01*
X7760000Y25480400D02*
X3564800Y21285200D01*
X7760000Y40656600D02*
X7760000Y25480400D01*
X3564800Y21285200D02*
X3564800Y6515200D01*
X3564800Y6515200D02*
X5330000Y4750000D01*
D18*
X47410100Y65401700D02*
X47410100Y65640000D01*
X48561600Y64250200D02*
X47410100Y65401700D01*
X60341700Y64250200D02*
X48561600Y64250200D01*
X61281700Y63310200D02*
X60341700Y64250200D01*
X69820100Y63310200D02*
X61281700Y63310200D01*
X70969900Y64460000D02*
X69820100Y63310200D01*
X72070000Y64460000D02*
X70969900Y64460000D01*
X46260000Y65640000D02*
X47410100Y65640000D01*
X47410100Y67941700D02*
X47410100Y68180000D01*
X48561600Y66790200D02*
X47410100Y67941700D01*
X60341700Y66790200D02*
X48561600Y66790200D01*
X61281700Y65850200D02*
X60341700Y66790200D01*
X69820100Y65850200D02*
X61281700Y65850200D01*
X70969900Y67000000D02*
X69820100Y65850200D01*
X72070000Y67000000D02*
X70969900Y67000000D01*
X46260000Y68180000D02*
X47410100Y68180000D01*
X47410100Y70481700D02*
X47410100Y70720000D01*
X48561600Y69330200D02*
X47410100Y70481700D01*
X62993800Y69330200D02*
X48561600Y69330200D01*
X63909000Y68415000D02*
X62993800Y69330200D01*
X69844900Y68415000D02*
X63909000Y68415000D01*
X70969900Y69540000D02*
X69844900Y68415000D01*
X72070000Y69540000D02*
X70969900Y69540000D01*
X46260000Y70720000D02*
X47410100Y70720000D01*
X47410100Y73021700D02*
X47410100Y73260000D01*
X48441800Y71990000D02*
X47410100Y73021700D01*
X54644900Y71990000D02*
X48441800Y71990000D01*
X55021400Y71613500D02*
X54644900Y71990000D01*
X60598400Y71613500D02*
X55021400Y71613500D01*
X61249100Y70962800D02*
X60598400Y71613500D01*
X69852700Y70962800D02*
X61249100Y70962800D01*
X70969900Y72080000D02*
X69852700Y70962800D01*
X72070000Y72080000D02*
X70969900Y72080000D01*
X46260000Y73260000D02*
X47410100Y73260000D01*
X64450000Y69540000D02*
X63349900Y69540000D01*
X62404900Y70485000D02*
X57250000Y70485000D01*
X63349900Y69540000D02*
X62404900Y70485000D01*
X28380000Y70820000D02*
X29480100Y70820000D01*
X30807900Y72147800D02*
X39785800Y72147800D01*
X29480100Y70820000D02*
X30807900Y72147800D01*
X47410100Y75561700D02*
X47410100Y75800000D01*
X48561600Y74410200D02*
X47410100Y75561700D01*
X62993800Y74410200D02*
X48561600Y74410200D01*
X63909000Y73495000D02*
X62993800Y74410200D01*
X69844900Y73495000D02*
X63909000Y73495000D01*
X70969900Y74620000D02*
X69844900Y73495000D01*
X72070000Y74620000D02*
X70969900Y74620000D01*
X46260000Y75800000D02*
X47410100Y75800000D01*
X47410100Y78052500D02*
X47410100Y78340000D01*
X48512400Y76950200D02*
X47410100Y78052500D01*
X62993800Y76950200D02*
X48512400Y76950200D01*
X63891300Y76052700D02*
X62993800Y76950200D01*
X69862600Y76052700D02*
X63891300Y76052700D01*
X70969900Y77160000D02*
X69862600Y76052700D01*
X72070000Y77160000D02*
X70969900Y77160000D01*
X46260000Y78340000D02*
X47410100Y78340000D01*
X68374900Y51095100D02*
X68374900Y50025000D01*
X63445000Y56025000D02*
X68374900Y51095100D01*
X69525000Y50025000D02*
X68374900Y50025000D01*
X5091700Y10980100D02*
X5330000Y10980100D01*
X4165000Y11906800D02*
X5091700Y10980100D01*
X4165000Y20453200D02*
X4165000Y11906800D01*
X25531700Y41819900D02*
X4165000Y20453200D01*
X32757400Y41819900D02*
X25531700Y41819900D01*
X33619900Y42682400D02*
X32757400Y41819900D01*
X33619900Y42970000D02*
X33619900Y42682400D01*
X34770000Y42970000D02*
X33619900Y42970000D01*
X5330000Y9830000D02*
X5330000Y10980100D01*
X35920100Y42731700D02*
X35920100Y42970000D01*
X36836600Y41815200D02*
X35920100Y42731700D01*
X37817800Y41815200D02*
X36836600Y41815200D01*
X38580000Y42577400D02*
X37817800Y41815200D01*
X38580000Y43364100D02*
X38580000Y42577400D01*
X40921900Y45706000D02*
X38580000Y43364100D01*
X60641700Y45706000D02*
X40921900Y45706000D01*
X34770000Y42970000D02*
X35920100Y42970000D01*
X77421100Y46327500D02*
X61556300Y46327500D01*
X83640000Y52546400D02*
X77421100Y46327500D01*
X83640000Y54040000D02*
X83640000Y52546400D01*
X23598100Y7290000D02*
X7870000Y7290000D01*
X58900000Y42591900D02*
X23598100Y7290000D01*
X58900000Y43364100D02*
X58900000Y42591900D01*
X59918700Y44382800D02*
X58900000Y43364100D01*
X60225800Y44382800D02*
X59918700Y44382800D01*
X61556300Y45713300D02*
X60225800Y44382800D01*
X61556300Y46327500D02*
X61556300Y45713300D01*
X27150000Y42970000D02*
X28300100Y42970000D01*
X28300100Y43257500D02*
X28300100Y42970000D01*
X31505600Y46463000D02*
X28300100Y43257500D01*
X61420800Y46463000D02*
X31505600Y46463000D01*
X61556300Y46327500D02*
X61420800Y46463000D01*
X62404900Y78105000D02*
X57250000Y78105000D01*
X63349900Y77160000D02*
X62404900Y78105000D01*
X64450000Y77160000D02*
X63349900Y77160000D01*
X75002700Y78527800D02*
X76099900Y79625000D01*
X62548000Y78527800D02*
X75002700Y78527800D01*
X61863500Y79212300D02*
X62548000Y78527800D01*
X50822400Y79212300D02*
X61863500Y79212300D01*
X49950100Y78340000D02*
X50822400Y79212300D01*
X48800000Y78340000D02*
X49950100Y78340000D01*
X77200000Y79625000D02*
X76099900Y79625000D01*
X59295100Y79700000D02*
X58350100Y80645000D01*
X64450000Y79700000D02*
X59295100Y79700000D01*
X57250000Y80645000D02*
X58350100Y80645000D01*
X48637600Y80645000D02*
X57250000Y80645000D01*
X42410100Y86872500D02*
X48637600Y80645000D01*
X42410100Y87160000D02*
X42410100Y86872500D01*
X41260000Y87160000D02*
X42410100Y87160000D01*
X62404900Y75565000D02*
X57250000Y75565000D01*
X63349900Y74620000D02*
X62404900Y75565000D01*
X64450000Y74620000D02*
X63349900Y74620000D01*
X5370100Y61210200D02*
X4220000Y60060100D01*
X5370100Y72838500D02*
X5370100Y61210200D01*
X6221800Y73690200D02*
X5370100Y72838500D01*
X7003000Y73690200D02*
X6221800Y73690200D01*
X11922400Y78609600D02*
X7003000Y73690200D01*
X29307000Y78609600D02*
X11922400Y78609600D01*
X37569900Y86872500D02*
X29307000Y78609600D01*
X37569900Y87160000D02*
X37569900Y86872500D01*
X38720000Y87160000D02*
X37569900Y87160000D01*
X4220000Y58910000D02*
X4220000Y60060100D01*
X6480100Y20228300D02*
X6480100Y19990000D01*
X7906300Y21654500D02*
X6480100Y20228300D01*
X22727600Y21654500D02*
X7906300Y21654500D01*
X43660000Y42586900D02*
X22727600Y21654500D01*
X43660000Y43370500D02*
X43660000Y42586900D01*
X44837100Y44547600D02*
X43660000Y43370500D01*
X52649800Y44547600D02*
X44837100Y44547600D01*
X53939900Y43257500D02*
X52649800Y44547600D01*
X53939900Y42970000D02*
X53939900Y43257500D01*
X55090000Y42970000D02*
X53939900Y42970000D01*
X5330000Y19990000D02*
X6480100Y19990000D01*
X36180000Y87160000D02*
X35029900Y87160000D01*
X4220000Y80160000D02*
X5370100Y80160000D01*
X23576600Y19990000D02*
X7870000Y19990000D01*
X46319800Y42733200D02*
X23576600Y19990000D01*
X46319800Y43458600D02*
X46319800Y42733200D01*
X46997200Y44136000D02*
X46319800Y43458600D01*
X50521400Y44136000D02*
X46997200Y44136000D01*
X51399900Y43257500D02*
X50521400Y44136000D01*
X51399900Y42970000D02*
X51399900Y43257500D01*
X52550000Y42970000D02*
X51399900Y42970000D01*
X5370100Y79921700D02*
X5370100Y80160000D01*
X6282000Y79009800D02*
X5370100Y79921700D01*
X27167200Y79009800D02*
X6282000Y79009800D01*
X35029900Y86872500D02*
X27167200Y79009800D01*
X35029900Y87160000D02*
X35029900Y86872500D01*
X50010000Y42970000D02*
X48859900Y42970000D01*
X5330000Y17450000D02*
X6480100Y17450000D01*
X6480100Y17211700D02*
X6480100Y17450000D01*
X7428500Y16263300D02*
X6480100Y17211700D01*
X22390100Y16263300D02*
X7428500Y16263300D01*
X48859900Y42733100D02*
X22390100Y16263300D01*
X48859900Y42970000D02*
X48859900Y42733100D01*
X28297000Y82700000D02*
X6760000Y82700000D01*
X32489900Y86892900D02*
X28297000Y82700000D01*
X32489900Y87687400D02*
X32489900Y86892900D01*
X33352400Y88549900D02*
X32489900Y87687400D01*
X33640000Y88549900D02*
X33352400Y88549900D01*
X33640000Y89700000D02*
X33640000Y88549900D01*
X5370100Y82461700D02*
X5370100Y82700000D01*
X6322400Y81509400D02*
X5370100Y82461700D01*
X27989400Y81509400D02*
X6322400Y81509400D01*
X33640000Y87160000D02*
X27989400Y81509400D01*
X4220000Y82700000D02*
X5370100Y82700000D01*
X21950000Y17450000D02*
X7870000Y17450000D01*
X47470000Y42970000D02*
X21950000Y17450000D01*
X28302000Y85240000D02*
X6760000Y85240000D01*
X29949900Y86887900D02*
X28302000Y85240000D01*
X29949900Y87687400D02*
X29949900Y86887900D01*
X30812400Y88549900D02*
X29949900Y87687400D01*
X31100000Y88549900D02*
X30812400Y88549900D01*
X31100000Y89700000D02*
X31100000Y88549900D01*
X4220000Y85240000D02*
X5370100Y85240000D01*
X5370100Y85001700D02*
X5370100Y85240000D01*
X6322400Y84049400D02*
X5370100Y85001700D01*
X27989400Y84049400D02*
X6322400Y84049400D01*
X31100000Y87160000D02*
X27989400Y84049400D01*
X8680000Y88549900D02*
X7910100Y87780000D01*
X26547400Y88549900D02*
X8680000Y88549900D01*
X27409900Y89412400D02*
X26547400Y88549900D01*
X27409900Y89700000D02*
X27409900Y89412400D01*
X28560000Y89700000D02*
X27409900Y89700000D01*
X6760000Y87780000D02*
X7910100Y87780000D01*
X5370100Y87492400D02*
X5370100Y87780000D01*
X6232600Y86629900D02*
X5370100Y87492400D01*
X15874600Y86629900D02*
X6232600Y86629900D01*
X16494700Y86009800D02*
X15874600Y86629900D01*
X27050400Y86009800D02*
X16494700Y86009800D01*
X27409900Y86369300D02*
X27050400Y86009800D01*
X27409900Y87160000D02*
X27409900Y86369300D01*
X28560000Y87160000D02*
X27409900Y87160000D01*
X4220000Y87780000D02*
X5370100Y87780000D01*
X37310000Y44182800D02*
X37310000Y42970000D01*
X35629900Y45862900D02*
X37310000Y44182800D01*
D17*
X71574900Y81675100D02*
X70250000Y83000000D01*
X81425100Y81675100D02*
X71574900Y81675100D01*
X82750000Y83000000D02*
X81425100Y81675100D01*
X28380000Y60660000D02*
X29680100Y60660000D01*
X36000000Y63200000D02*
X29680100Y63200000D01*
X29680100Y60660000D02*
X29680100Y63200000D01*
X29680100Y64439900D02*
X28380000Y65740000D01*
X29680100Y63200000D02*
X29680100Y64439900D01*
X33850000Y75510000D02*
X33850000Y79100000D01*
X36000000Y73360000D02*
X33850000Y75510000D01*
X77200000Y64385000D02*
X77200000Y63084900D01*
X64450000Y61920000D02*
X65750100Y61920000D01*
X67081000Y60589100D02*
X65750100Y61920000D01*
X77200000Y60589100D02*
X67081000Y60589100D01*
X77200000Y63084900D02*
X77200000Y60589100D01*
X81100000Y56689100D02*
X81100000Y56580000D01*
X77200000Y60589100D02*
X81100000Y56689100D01*
X12370100Y68280000D02*
X8110100Y72540000D01*
X28380000Y68280000D02*
X12370100Y68280000D01*
X6760000Y72540000D02*
X8110100Y72540000D01*
X8810100Y42970000D02*
X8110100Y43670000D01*
X22070000Y42970000D02*
X8810100Y42970000D01*
X6760000Y43670000D02*
X8110100Y43670000D01*
X37362800Y63262700D02*
X37300100Y63200000D01*
X40033500Y63262700D02*
X37362800Y63262700D01*
X36000000Y63200000D02*
X37300100Y63200000D01*
X81720000Y90849500D02*
X84390000Y90849500D01*
X78030000Y87160000D02*
X81720000Y90849500D01*
X74280000Y87160000D02*
X78030000Y87160000D01*
X82329700Y77134700D02*
X84820000Y79625000D01*
X82329700Y52729700D02*
X82329700Y77134700D01*
X81100000Y51500000D02*
X82329700Y52729700D01*
X6283300Y41606700D02*
X4220000Y43670000D01*
X6809900Y41606700D02*
X6283300Y41606700D01*
X57250000Y60325000D02*
X55949900Y60325000D01*
X36000000Y75900000D02*
X37300100Y75900000D01*
X23246700Y41606700D02*
X24610000Y42970000D01*
X6809900Y41606700D02*
X23246700Y41606700D01*
X24610000Y42970000D02*
X24610000Y44320100D01*
X25791400Y44320100D02*
X41081300Y59610000D01*
X24610000Y44320100D02*
X25791400Y44320100D01*
X41081300Y72118800D02*
X41081300Y59610000D01*
X37300100Y75900000D02*
X41081300Y72118800D01*
X54830700Y59205800D02*
X55949900Y60325000D01*
X41485500Y59205800D02*
X54830700Y59205800D01*
X41081300Y59610000D02*
X41485500Y59205800D01*
X68336900Y48673100D02*
X66985000Y50025000D01*
X78273100Y48673100D02*
X68336900Y48673100D01*
X81100000Y51500000D02*
X78273100Y48673100D01*
X58550100Y59024900D02*
X58550100Y60325000D01*
X66199900Y51375100D02*
X58550100Y59024900D01*
X66985000Y51375100D02*
X66199900Y51375100D01*
X66985000Y50025000D02*
X66985000Y51375100D01*
X57250000Y60325000D02*
X58550100Y60325000D01*
M02*
