G04 #@! TF.GenerationSoftware,KiCad,Pcbnew,(7.0.0-0)*
G04 #@! TF.CreationDate,2023-03-24T11:35:07+09:00*
G04 #@! TF.ProjectId,K68-SC1602,4b36382d-5343-4313-9630-322e6b696361,rev?*
G04 #@! TF.SameCoordinates,PX5f5e100PY8f0d180*
G04 #@! TF.FileFunction,Legend,Top*
G04 #@! TF.FilePolarity,Positive*
%FSLAX46Y46*%
G04 Gerber Fmt 4.6, Leading zero omitted, Abs format (unit mm)*
G04 Created by KiCad (PCBNEW (7.0.0-0)) date 2023-03-24 11:35:07*
%MOMM*%
%LPD*%
G01*
G04 APERTURE LIST*
%ADD10C,0.100000*%
%ADD11C,0.150000*%
%ADD12C,0.200000*%
%ADD13C,0.120000*%
G04 APERTURE END LIST*
D10*
X1842380Y75848096D02*
X842380Y75848096D01*
X794761Y77038571D02*
X2080476Y76181429D01*
X842380Y77562381D02*
X842380Y77752857D01*
X842380Y77752857D02*
X890000Y77848095D01*
X890000Y77848095D02*
X985238Y77943333D01*
X985238Y77943333D02*
X1175714Y77990952D01*
X1175714Y77990952D02*
X1509047Y77990952D01*
X1509047Y77990952D02*
X1699523Y77943333D01*
X1699523Y77943333D02*
X1794761Y77848095D01*
X1794761Y77848095D02*
X1842380Y77752857D01*
X1842380Y77752857D02*
X1842380Y77562381D01*
X1842380Y77562381D02*
X1794761Y77467143D01*
X1794761Y77467143D02*
X1699523Y77371905D01*
X1699523Y77371905D02*
X1509047Y77324286D01*
X1509047Y77324286D02*
X1175714Y77324286D01*
X1175714Y77324286D02*
X985238Y77371905D01*
X985238Y77371905D02*
X890000Y77467143D01*
X890000Y77467143D02*
X842380Y77562381D01*
X985238Y78276667D02*
X985238Y78705238D01*
X1032857Y78848095D02*
X1032857Y79467143D01*
X1175714Y78752857D02*
X1175714Y79514762D01*
X747142Y78514762D02*
X985238Y78514762D01*
X1366190Y78800476D02*
X1842380Y78800476D01*
X794761Y78848095D02*
X1032857Y78848095D01*
X1366190Y79038571D02*
X1842380Y79038571D01*
X1175714Y79133809D02*
X1366190Y79086190D01*
X699523Y79133809D02*
X1032857Y79133809D01*
X1366190Y79276667D02*
X1842380Y79276667D01*
X794761Y79467143D02*
X1032857Y79467143D01*
X1080476Y78610000D02*
X1604285Y78562381D01*
X1556666Y78705238D02*
X1651904Y78276667D01*
X1080476Y78371905D02*
X1509047Y78419524D01*
X1366190Y78800476D02*
X1366190Y79467143D01*
X1366190Y79467143D02*
X1842380Y79467143D01*
X1842380Y79467143D02*
X1842380Y79419524D01*
X1318571Y79752857D02*
X1318571Y80990952D01*
X1842380Y80086190D02*
X1842380Y80371904D01*
X1080476Y80371904D02*
X1842380Y80371904D01*
X842380Y79895714D02*
X842380Y80848095D01*
X842380Y80848095D02*
X937619Y80705238D01*
X937619Y80705238D02*
X1080476Y80371904D01*
X1461428Y81371904D02*
X1461428Y82133808D01*
X1556666Y82562380D02*
X1556666Y83038570D01*
X1842380Y82467142D02*
X842380Y82800475D01*
X842380Y82800475D02*
X1842380Y83133808D01*
X41475476Y62730239D02*
X41618333Y62682620D01*
X41618333Y62682620D02*
X41856428Y62682620D01*
X41856428Y62682620D02*
X41951666Y62730239D01*
X41951666Y62730239D02*
X41999285Y62777858D01*
X41999285Y62777858D02*
X42046904Y62873096D01*
X42046904Y62873096D02*
X42046904Y62968334D01*
X42046904Y62968334D02*
X41999285Y63063572D01*
X41999285Y63063572D02*
X41951666Y63111191D01*
X41951666Y63111191D02*
X41856428Y63158810D01*
X41856428Y63158810D02*
X41665952Y63206429D01*
X41665952Y63206429D02*
X41570714Y63254048D01*
X41570714Y63254048D02*
X41523095Y63301667D01*
X41523095Y63301667D02*
X41475476Y63396905D01*
X41475476Y63396905D02*
X41475476Y63492143D01*
X41475476Y63492143D02*
X41523095Y63587381D01*
X41523095Y63587381D02*
X41570714Y63635000D01*
X41570714Y63635000D02*
X41665952Y63682620D01*
X41665952Y63682620D02*
X41904047Y63682620D01*
X41904047Y63682620D02*
X42046904Y63635000D01*
X41761190Y63825477D02*
X41761190Y62539762D01*
X42999285Y62682620D02*
X42427857Y62682620D01*
X42713571Y62682620D02*
X42713571Y63682620D01*
X42713571Y63682620D02*
X42618333Y63539762D01*
X42618333Y63539762D02*
X42523095Y63444524D01*
X42523095Y63444524D02*
X42427857Y63396905D01*
X43570714Y63254048D02*
X43475476Y63301667D01*
X43475476Y63301667D02*
X43427857Y63349286D01*
X43427857Y63349286D02*
X43380238Y63444524D01*
X43380238Y63444524D02*
X43380238Y63492143D01*
X43380238Y63492143D02*
X43427857Y63587381D01*
X43427857Y63587381D02*
X43475476Y63635000D01*
X43475476Y63635000D02*
X43570714Y63682620D01*
X43570714Y63682620D02*
X43761190Y63682620D01*
X43761190Y63682620D02*
X43856428Y63635000D01*
X43856428Y63635000D02*
X43904047Y63587381D01*
X43904047Y63587381D02*
X43951666Y63492143D01*
X43951666Y63492143D02*
X43951666Y63444524D01*
X43951666Y63444524D02*
X43904047Y63349286D01*
X43904047Y63349286D02*
X43856428Y63301667D01*
X43856428Y63301667D02*
X43761190Y63254048D01*
X43761190Y63254048D02*
X43570714Y63254048D01*
X43570714Y63254048D02*
X43475476Y63206429D01*
X43475476Y63206429D02*
X43427857Y63158810D01*
X43427857Y63158810D02*
X43380238Y63063572D01*
X43380238Y63063572D02*
X43380238Y62873096D01*
X43380238Y62873096D02*
X43427857Y62777858D01*
X43427857Y62777858D02*
X43475476Y62730239D01*
X43475476Y62730239D02*
X43570714Y62682620D01*
X43570714Y62682620D02*
X43761190Y62682620D01*
X43761190Y62682620D02*
X43856428Y62730239D01*
X43856428Y62730239D02*
X43904047Y62777858D01*
X43904047Y62777858D02*
X43951666Y62873096D01*
X43951666Y62873096D02*
X43951666Y63063572D01*
X43951666Y63063572D02*
X43904047Y63158810D01*
X43904047Y63158810D02*
X43856428Y63206429D01*
X43856428Y63206429D02*
X43761190Y63254048D01*
X83751904Y87767168D02*
X83180476Y87767168D01*
X83466190Y87767168D02*
X83466190Y88767168D01*
X83466190Y88767168D02*
X83370952Y88624310D01*
X83370952Y88624310D02*
X83275714Y88529072D01*
X83275714Y88529072D02*
X83180476Y88481453D01*
X84370952Y88767168D02*
X84466190Y88767168D01*
X84466190Y88767168D02*
X84561428Y88719548D01*
X84561428Y88719548D02*
X84609047Y88671929D01*
X84609047Y88671929D02*
X84656666Y88576691D01*
X84656666Y88576691D02*
X84704285Y88386215D01*
X84704285Y88386215D02*
X84704285Y88148120D01*
X84704285Y88148120D02*
X84656666Y87957644D01*
X84656666Y87957644D02*
X84609047Y87862406D01*
X84609047Y87862406D02*
X84561428Y87814787D01*
X84561428Y87814787D02*
X84466190Y87767168D01*
X84466190Y87767168D02*
X84370952Y87767168D01*
X84370952Y87767168D02*
X84275714Y87814787D01*
X84275714Y87814787D02*
X84228095Y87862406D01*
X84228095Y87862406D02*
X84180476Y87957644D01*
X84180476Y87957644D02*
X84132857Y88148120D01*
X84132857Y88148120D02*
X84132857Y88386215D01*
X84132857Y88386215D02*
X84180476Y88576691D01*
X84180476Y88576691D02*
X84228095Y88671929D01*
X84228095Y88671929D02*
X84275714Y88719548D01*
X84275714Y88719548D02*
X84370952Y88767168D01*
X85561428Y88433834D02*
X85561428Y87767168D01*
X85132857Y88433834D02*
X85132857Y87910025D01*
X85132857Y87910025D02*
X85180476Y87814787D01*
X85180476Y87814787D02*
X85275714Y87767168D01*
X85275714Y87767168D02*
X85418571Y87767168D01*
X85418571Y87767168D02*
X85513809Y87814787D01*
X85513809Y87814787D02*
X85561428Y87862406D01*
X86370952Y88290977D02*
X86037619Y88290977D01*
X86037619Y87767168D02*
X86037619Y88767168D01*
X86037619Y88767168D02*
X86513809Y88767168D01*
X41475476Y72730239D02*
X41618333Y72682620D01*
X41618333Y72682620D02*
X41856428Y72682620D01*
X41856428Y72682620D02*
X41951666Y72730239D01*
X41951666Y72730239D02*
X41999285Y72777858D01*
X41999285Y72777858D02*
X42046904Y72873096D01*
X42046904Y72873096D02*
X42046904Y72968334D01*
X42046904Y72968334D02*
X41999285Y73063572D01*
X41999285Y73063572D02*
X41951666Y73111191D01*
X41951666Y73111191D02*
X41856428Y73158810D01*
X41856428Y73158810D02*
X41665952Y73206429D01*
X41665952Y73206429D02*
X41570714Y73254048D01*
X41570714Y73254048D02*
X41523095Y73301667D01*
X41523095Y73301667D02*
X41475476Y73396905D01*
X41475476Y73396905D02*
X41475476Y73492143D01*
X41475476Y73492143D02*
X41523095Y73587381D01*
X41523095Y73587381D02*
X41570714Y73635000D01*
X41570714Y73635000D02*
X41665952Y73682620D01*
X41665952Y73682620D02*
X41904047Y73682620D01*
X41904047Y73682620D02*
X42046904Y73635000D01*
X41761190Y73825477D02*
X41761190Y72539762D01*
X42665952Y73682620D02*
X42761190Y73682620D01*
X42761190Y73682620D02*
X42856428Y73635000D01*
X42856428Y73635000D02*
X42904047Y73587381D01*
X42904047Y73587381D02*
X42951666Y73492143D01*
X42951666Y73492143D02*
X42999285Y73301667D01*
X42999285Y73301667D02*
X42999285Y73063572D01*
X42999285Y73063572D02*
X42951666Y72873096D01*
X42951666Y72873096D02*
X42904047Y72777858D01*
X42904047Y72777858D02*
X42856428Y72730239D01*
X42856428Y72730239D02*
X42761190Y72682620D01*
X42761190Y72682620D02*
X42665952Y72682620D01*
X42665952Y72682620D02*
X42570714Y72730239D01*
X42570714Y72730239D02*
X42523095Y72777858D01*
X42523095Y72777858D02*
X42475476Y72873096D01*
X42475476Y72873096D02*
X42427857Y73063572D01*
X42427857Y73063572D02*
X42427857Y73301667D01*
X42427857Y73301667D02*
X42475476Y73492143D01*
X42475476Y73492143D02*
X42523095Y73587381D01*
X42523095Y73587381D02*
X42570714Y73635000D01*
X42570714Y73635000D02*
X42665952Y73682620D01*
X43570714Y73254048D02*
X43475476Y73301667D01*
X43475476Y73301667D02*
X43427857Y73349286D01*
X43427857Y73349286D02*
X43380238Y73444524D01*
X43380238Y73444524D02*
X43380238Y73492143D01*
X43380238Y73492143D02*
X43427857Y73587381D01*
X43427857Y73587381D02*
X43475476Y73635000D01*
X43475476Y73635000D02*
X43570714Y73682620D01*
X43570714Y73682620D02*
X43761190Y73682620D01*
X43761190Y73682620D02*
X43856428Y73635000D01*
X43856428Y73635000D02*
X43904047Y73587381D01*
X43904047Y73587381D02*
X43951666Y73492143D01*
X43951666Y73492143D02*
X43951666Y73444524D01*
X43951666Y73444524D02*
X43904047Y73349286D01*
X43904047Y73349286D02*
X43856428Y73301667D01*
X43856428Y73301667D02*
X43761190Y73254048D01*
X43761190Y73254048D02*
X43570714Y73254048D01*
X43570714Y73254048D02*
X43475476Y73206429D01*
X43475476Y73206429D02*
X43427857Y73158810D01*
X43427857Y73158810D02*
X43380238Y73063572D01*
X43380238Y73063572D02*
X43380238Y72873096D01*
X43380238Y72873096D02*
X43427857Y72777858D01*
X43427857Y72777858D02*
X43475476Y72730239D01*
X43475476Y72730239D02*
X43570714Y72682620D01*
X43570714Y72682620D02*
X43761190Y72682620D01*
X43761190Y72682620D02*
X43856428Y72730239D01*
X43856428Y72730239D02*
X43904047Y72777858D01*
X43904047Y72777858D02*
X43951666Y72873096D01*
X43951666Y72873096D02*
X43951666Y73063572D01*
X43951666Y73063572D02*
X43904047Y73158810D01*
X43904047Y73158810D02*
X43856428Y73206429D01*
X43856428Y73206429D02*
X43761190Y73254048D01*
X41475476Y70230239D02*
X41618333Y70182620D01*
X41618333Y70182620D02*
X41856428Y70182620D01*
X41856428Y70182620D02*
X41951666Y70230239D01*
X41951666Y70230239D02*
X41999285Y70277858D01*
X41999285Y70277858D02*
X42046904Y70373096D01*
X42046904Y70373096D02*
X42046904Y70468334D01*
X42046904Y70468334D02*
X41999285Y70563572D01*
X41999285Y70563572D02*
X41951666Y70611191D01*
X41951666Y70611191D02*
X41856428Y70658810D01*
X41856428Y70658810D02*
X41665952Y70706429D01*
X41665952Y70706429D02*
X41570714Y70754048D01*
X41570714Y70754048D02*
X41523095Y70801667D01*
X41523095Y70801667D02*
X41475476Y70896905D01*
X41475476Y70896905D02*
X41475476Y70992143D01*
X41475476Y70992143D02*
X41523095Y71087381D01*
X41523095Y71087381D02*
X41570714Y71135000D01*
X41570714Y71135000D02*
X41665952Y71182620D01*
X41665952Y71182620D02*
X41904047Y71182620D01*
X41904047Y71182620D02*
X42046904Y71135000D01*
X41761190Y71325477D02*
X41761190Y70039762D01*
X42665952Y71182620D02*
X42761190Y71182620D01*
X42761190Y71182620D02*
X42856428Y71135000D01*
X42856428Y71135000D02*
X42904047Y71087381D01*
X42904047Y71087381D02*
X42951666Y70992143D01*
X42951666Y70992143D02*
X42999285Y70801667D01*
X42999285Y70801667D02*
X42999285Y70563572D01*
X42999285Y70563572D02*
X42951666Y70373096D01*
X42951666Y70373096D02*
X42904047Y70277858D01*
X42904047Y70277858D02*
X42856428Y70230239D01*
X42856428Y70230239D02*
X42761190Y70182620D01*
X42761190Y70182620D02*
X42665952Y70182620D01*
X42665952Y70182620D02*
X42570714Y70230239D01*
X42570714Y70230239D02*
X42523095Y70277858D01*
X42523095Y70277858D02*
X42475476Y70373096D01*
X42475476Y70373096D02*
X42427857Y70563572D01*
X42427857Y70563572D02*
X42427857Y70801667D01*
X42427857Y70801667D02*
X42475476Y70992143D01*
X42475476Y70992143D02*
X42523095Y71087381D01*
X42523095Y71087381D02*
X42570714Y71135000D01*
X42570714Y71135000D02*
X42665952Y71182620D01*
X43999285Y70277858D02*
X43951666Y70230239D01*
X43951666Y70230239D02*
X43808809Y70182620D01*
X43808809Y70182620D02*
X43713571Y70182620D01*
X43713571Y70182620D02*
X43570714Y70230239D01*
X43570714Y70230239D02*
X43475476Y70325477D01*
X43475476Y70325477D02*
X43427857Y70420715D01*
X43427857Y70420715D02*
X43380238Y70611191D01*
X43380238Y70611191D02*
X43380238Y70754048D01*
X43380238Y70754048D02*
X43427857Y70944524D01*
X43427857Y70944524D02*
X43475476Y71039762D01*
X43475476Y71039762D02*
X43570714Y71135000D01*
X43570714Y71135000D02*
X43713571Y71182620D01*
X43713571Y71182620D02*
X43808809Y71182620D01*
X43808809Y71182620D02*
X43951666Y71135000D01*
X43951666Y71135000D02*
X43999285Y71087381D01*
X36928571Y40170000D02*
X37833333Y40170000D01*
X37071428Y39931905D02*
X37071428Y39217620D01*
X37357142Y40360477D02*
X37357142Y40170000D01*
X37404761Y39789048D02*
X37547619Y39693810D01*
X36642857Y40312858D02*
X36833333Y40217620D01*
X36595238Y39979524D02*
X36785714Y39884286D01*
X37309523Y39836667D02*
X37404761Y39550953D01*
X37404761Y39550953D02*
X37642857Y39312858D01*
X37642857Y39312858D02*
X37833333Y39217620D01*
X36785714Y39598572D02*
X36642857Y39217620D01*
X37119047Y40122381D02*
X36928571Y39741429D01*
X37404761Y40122381D02*
X37309523Y39836667D01*
X37309523Y39836667D02*
X37166666Y39693810D01*
X37309523Y39931905D02*
X37785714Y39931905D01*
X37785714Y39931905D02*
X37595238Y39550953D01*
X37595238Y39550953D02*
X37404761Y39312858D01*
X37404761Y39312858D02*
X37166666Y39217620D01*
X38309523Y40074762D02*
X39071428Y40074762D01*
X38309523Y39884286D02*
X39071428Y39884286D01*
X38071428Y39503334D02*
X38595237Y39503334D01*
X38833332Y39503334D02*
X39309523Y39503334D01*
X38071428Y39265239D02*
X38595237Y39265239D01*
X38833332Y39265239D02*
X39309523Y39265239D01*
X38071428Y39741429D02*
X38071428Y39217620D01*
X38309523Y40312858D02*
X38309523Y39884286D01*
X38071428Y39741429D02*
X38595237Y39741429D01*
X38595237Y39741429D02*
X38595237Y39217620D01*
X38833332Y39741429D02*
X38833332Y39217620D01*
X38309523Y40312858D02*
X39071428Y40312858D01*
X39071428Y40312858D02*
X39071428Y39884286D01*
X38833332Y39741429D02*
X39309523Y39741429D01*
X39309523Y39741429D02*
X39309523Y39217620D01*
X39547618Y40074762D02*
X39976189Y40074762D01*
X40119046Y40027143D02*
X40738094Y40027143D01*
X40023808Y39884286D02*
X40785713Y39884286D01*
X39785713Y40312858D02*
X39785713Y40074762D01*
X40071427Y39693810D02*
X40071427Y39217620D01*
X40119046Y40265239D02*
X40119046Y40027143D01*
X40309522Y39693810D02*
X40309522Y39217620D01*
X40404760Y39884286D02*
X40357141Y39693810D01*
X40404760Y40360477D02*
X40404760Y40027143D01*
X40547618Y39693810D02*
X40547618Y39217620D01*
X40738094Y40265239D02*
X40738094Y40027143D01*
X39880951Y39979524D02*
X39833332Y39455715D01*
X39976189Y39503334D02*
X39547618Y39408096D01*
X39642856Y39979524D02*
X39690475Y39550953D01*
X40071427Y39693810D02*
X40738094Y39693810D01*
X40738094Y39693810D02*
X40738094Y39217620D01*
X40738094Y39217620D02*
X40690475Y39217620D01*
X41023808Y39741429D02*
X42261903Y39741429D01*
X41357141Y39217620D02*
X41642855Y39217620D01*
X41642855Y39979524D02*
X41642855Y39217620D01*
X41166665Y40217620D02*
X42119046Y40217620D01*
X42119046Y40217620D02*
X41976189Y40122381D01*
X41976189Y40122381D02*
X41642855Y39979524D01*
X43166664Y39217620D02*
X42595236Y39217620D01*
X42880950Y39217620D02*
X42880950Y40217620D01*
X42880950Y40217620D02*
X42785712Y40074762D01*
X42785712Y40074762D02*
X42690474Y39979524D01*
X42690474Y39979524D02*
X42595236Y39931905D01*
X43499998Y40265239D02*
X44214283Y40265239D01*
X44452379Y39217620D02*
X44690474Y39217620D01*
X44309521Y40217620D02*
X44309521Y39550953D01*
X44690474Y40312858D02*
X44690474Y39217620D01*
X43595236Y39789048D02*
X43976188Y39598572D01*
X43785712Y40265239D02*
X43595236Y39836667D01*
X43595236Y39836667D02*
X43452379Y39693810D01*
X43642855Y39931905D02*
X44119045Y39931905D01*
X44119045Y39931905D02*
X43928569Y39550953D01*
X43928569Y39550953D02*
X43642855Y39217620D01*
X41475476Y65230239D02*
X41618333Y65182620D01*
X41618333Y65182620D02*
X41856428Y65182620D01*
X41856428Y65182620D02*
X41951666Y65230239D01*
X41951666Y65230239D02*
X41999285Y65277858D01*
X41999285Y65277858D02*
X42046904Y65373096D01*
X42046904Y65373096D02*
X42046904Y65468334D01*
X42046904Y65468334D02*
X41999285Y65563572D01*
X41999285Y65563572D02*
X41951666Y65611191D01*
X41951666Y65611191D02*
X41856428Y65658810D01*
X41856428Y65658810D02*
X41665952Y65706429D01*
X41665952Y65706429D02*
X41570714Y65754048D01*
X41570714Y65754048D02*
X41523095Y65801667D01*
X41523095Y65801667D02*
X41475476Y65896905D01*
X41475476Y65896905D02*
X41475476Y65992143D01*
X41475476Y65992143D02*
X41523095Y66087381D01*
X41523095Y66087381D02*
X41570714Y66135000D01*
X41570714Y66135000D02*
X41665952Y66182620D01*
X41665952Y66182620D02*
X41904047Y66182620D01*
X41904047Y66182620D02*
X42046904Y66135000D01*
X41761190Y66325477D02*
X41761190Y65039762D01*
X42999285Y65182620D02*
X42427857Y65182620D01*
X42713571Y65182620D02*
X42713571Y66182620D01*
X42713571Y66182620D02*
X42618333Y66039762D01*
X42618333Y66039762D02*
X42523095Y65944524D01*
X42523095Y65944524D02*
X42427857Y65896905D01*
X43856428Y65849286D02*
X43856428Y65182620D01*
X43618333Y66230239D02*
X43380238Y65515953D01*
X43380238Y65515953D02*
X43999285Y65515953D01*
X60282380Y66261905D02*
X60282380Y65690477D01*
X60282380Y65976191D02*
X59282380Y65976191D01*
X59282380Y65976191D02*
X59425238Y65880953D01*
X59425238Y65880953D02*
X59520476Y65785715D01*
X59520476Y65785715D02*
X59568095Y65690477D01*
X59282380Y66880953D02*
X59282380Y66976191D01*
X59282380Y66976191D02*
X59330000Y67071429D01*
X59330000Y67071429D02*
X59377619Y67119048D01*
X59377619Y67119048D02*
X59472857Y67166667D01*
X59472857Y67166667D02*
X59663333Y67214286D01*
X59663333Y67214286D02*
X59901428Y67214286D01*
X59901428Y67214286D02*
X60091904Y67166667D01*
X60091904Y67166667D02*
X60187142Y67119048D01*
X60187142Y67119048D02*
X60234761Y67071429D01*
X60234761Y67071429D02*
X60282380Y66976191D01*
X60282380Y66976191D02*
X60282380Y66880953D01*
X60282380Y66880953D02*
X60234761Y66785715D01*
X60234761Y66785715D02*
X60187142Y66738096D01*
X60187142Y66738096D02*
X60091904Y66690477D01*
X60091904Y66690477D02*
X59901428Y66642858D01*
X59901428Y66642858D02*
X59663333Y66642858D01*
X59663333Y66642858D02*
X59472857Y66690477D01*
X59472857Y66690477D02*
X59377619Y66738096D01*
X59377619Y66738096D02*
X59330000Y66785715D01*
X59330000Y66785715D02*
X59282380Y66880953D01*
X60282380Y67642858D02*
X59282380Y67642858D01*
X59901428Y67738096D02*
X60282380Y68023810D01*
X59615714Y68023810D02*
X59996666Y67642858D01*
X60282380Y68404763D02*
X60282380Y68642858D01*
X60282380Y68642858D02*
X60091904Y68642858D01*
X60091904Y68642858D02*
X60044285Y68547620D01*
X60044285Y68547620D02*
X59949047Y68452382D01*
X59949047Y68452382D02*
X59806190Y68404763D01*
X59806190Y68404763D02*
X59568095Y68404763D01*
X59568095Y68404763D02*
X59425238Y68452382D01*
X59425238Y68452382D02*
X59330000Y68547620D01*
X59330000Y68547620D02*
X59282380Y68690477D01*
X59282380Y68690477D02*
X59282380Y68880953D01*
X59282380Y68880953D02*
X59330000Y69023810D01*
X59330000Y69023810D02*
X59425238Y69119048D01*
X59425238Y69119048D02*
X59568095Y69166667D01*
X59568095Y69166667D02*
X59806190Y69166667D01*
X59806190Y69166667D02*
X59949047Y69119048D01*
X59949047Y69119048D02*
X60044285Y69023810D01*
X60044285Y69023810D02*
X60091904Y68928572D01*
X60091904Y68928572D02*
X60282380Y68928572D01*
X60282380Y68928572D02*
X60282380Y69166667D01*
X59330000Y69642858D02*
X59330000Y70547620D01*
X59472857Y69642858D02*
X59472857Y70500001D01*
X59615714Y69642858D02*
X59615714Y70547620D01*
X59806190Y69642858D02*
X59806190Y70642858D01*
X59949047Y69500001D02*
X59949047Y70690477D01*
X59282380Y69690477D02*
X59806190Y69690477D01*
X59234761Y70119048D02*
X60282380Y70119048D01*
X59282380Y69690477D02*
X59520476Y69452382D01*
X59996666Y70166667D02*
X60234761Y70690477D01*
X59139523Y69738096D02*
X59377619Y69642858D01*
X59139523Y70119048D02*
X59330000Y70071429D01*
X59901428Y70071429D02*
X60044285Y69928572D01*
X60044285Y69928572D02*
X60282380Y69452382D01*
X59568095Y71214286D02*
X59568095Y71880953D01*
X60234761Y71166667D02*
X60234761Y71928572D01*
X59806190Y71166667D02*
X60282380Y71166667D01*
X59806190Y71166667D02*
X59806190Y71928572D01*
X59806190Y71928572D02*
X60282380Y71928572D01*
X59139523Y71547619D02*
X59472857Y71880953D01*
X59472857Y71880953D02*
X59615714Y72166667D01*
X59139523Y71547619D02*
X59520476Y71166667D01*
X59520476Y71166667D02*
X59615714Y70928572D01*
X59425238Y72404762D02*
X59425238Y72833333D01*
X59615714Y72928571D02*
X59615714Y73595238D01*
X60234761Y72833333D02*
X60234761Y73357143D01*
X60282380Y72452381D02*
X60282380Y72642857D01*
X59139523Y72642857D02*
X60282380Y72642857D01*
X59282380Y72928571D02*
X60044285Y72928571D01*
X59710952Y72833333D02*
X59853809Y72404762D01*
X59234761Y73309523D02*
X59520476Y73357143D01*
X59520476Y73357143D02*
X59663333Y73309523D01*
X59663333Y73309523D02*
X60139523Y73404762D01*
X59187142Y73500000D02*
X59282380Y73023809D01*
X59996666Y73261904D02*
X60044285Y72785714D01*
X60044285Y73642857D02*
X60282380Y73595238D01*
X60282380Y73595238D02*
X60234761Y73500000D01*
X59377619Y74357142D02*
X59377619Y75071428D01*
X59425238Y73880952D02*
X59425238Y74309523D01*
X60282380Y73928571D02*
X60282380Y74119047D01*
X59139523Y74119047D02*
X60282380Y74119047D01*
X59139523Y74690475D02*
X59330000Y74690475D01*
X59758571Y74309523D02*
X59853809Y73880952D01*
X59568095Y74499999D02*
X59901428Y74499999D01*
X59901428Y74499999D02*
X60139523Y74452380D01*
X59568095Y74499999D02*
X59568095Y74880952D01*
X59568095Y74880952D02*
X60282380Y74928571D01*
X60282380Y74928571D02*
X60282380Y75071428D01*
X60282380Y75071428D02*
X60091904Y75166666D01*
X78528571Y84617620D02*
X78623809Y84617620D01*
X78623809Y84617620D02*
X78719047Y84570000D01*
X78719047Y84570000D02*
X78766666Y84522381D01*
X78766666Y84522381D02*
X78814285Y84427143D01*
X78814285Y84427143D02*
X78861904Y84236667D01*
X78861904Y84236667D02*
X78861904Y83998572D01*
X78861904Y83998572D02*
X78814285Y83808096D01*
X78814285Y83808096D02*
X78766666Y83712858D01*
X78766666Y83712858D02*
X78719047Y83665239D01*
X78719047Y83665239D02*
X78623809Y83617620D01*
X78623809Y83617620D02*
X78528571Y83617620D01*
X78528571Y83617620D02*
X78433333Y83665239D01*
X78433333Y83665239D02*
X78385714Y83712858D01*
X78385714Y83712858D02*
X78338095Y83808096D01*
X78338095Y83808096D02*
X78290476Y83998572D01*
X78290476Y83998572D02*
X78290476Y84236667D01*
X78290476Y84236667D02*
X78338095Y84427143D01*
X78338095Y84427143D02*
X78385714Y84522381D01*
X78385714Y84522381D02*
X78433333Y84570000D01*
X78433333Y84570000D02*
X78528571Y84617620D01*
X79290476Y83712858D02*
X79338095Y83665239D01*
X79338095Y83665239D02*
X79290476Y83617620D01*
X79290476Y83617620D02*
X79242857Y83665239D01*
X79242857Y83665239D02*
X79290476Y83712858D01*
X79290476Y83712858D02*
X79290476Y83617620D01*
X80290475Y83617620D02*
X79719047Y83617620D01*
X80004761Y83617620D02*
X80004761Y84617620D01*
X80004761Y84617620D02*
X79909523Y84474762D01*
X79909523Y84474762D02*
X79814285Y84379524D01*
X79814285Y84379524D02*
X79719047Y84331905D01*
X81147618Y84284286D02*
X81147618Y83617620D01*
X80719047Y84284286D02*
X80719047Y83760477D01*
X80719047Y83760477D02*
X80766666Y83665239D01*
X80766666Y83665239D02*
X80861904Y83617620D01*
X80861904Y83617620D02*
X81004761Y83617620D01*
X81004761Y83617620D02*
X81099999Y83665239D01*
X81099999Y83665239D02*
X81147618Y83712858D01*
X41475476Y67730239D02*
X41618333Y67682620D01*
X41618333Y67682620D02*
X41856428Y67682620D01*
X41856428Y67682620D02*
X41951666Y67730239D01*
X41951666Y67730239D02*
X41999285Y67777858D01*
X41999285Y67777858D02*
X42046904Y67873096D01*
X42046904Y67873096D02*
X42046904Y67968334D01*
X42046904Y67968334D02*
X41999285Y68063572D01*
X41999285Y68063572D02*
X41951666Y68111191D01*
X41951666Y68111191D02*
X41856428Y68158810D01*
X41856428Y68158810D02*
X41665952Y68206429D01*
X41665952Y68206429D02*
X41570714Y68254048D01*
X41570714Y68254048D02*
X41523095Y68301667D01*
X41523095Y68301667D02*
X41475476Y68396905D01*
X41475476Y68396905D02*
X41475476Y68492143D01*
X41475476Y68492143D02*
X41523095Y68587381D01*
X41523095Y68587381D02*
X41570714Y68635000D01*
X41570714Y68635000D02*
X41665952Y68682620D01*
X41665952Y68682620D02*
X41904047Y68682620D01*
X41904047Y68682620D02*
X42046904Y68635000D01*
X41761190Y68825477D02*
X41761190Y67539762D01*
X42999285Y67682620D02*
X42427857Y67682620D01*
X42713571Y67682620D02*
X42713571Y68682620D01*
X42713571Y68682620D02*
X42618333Y68539762D01*
X42618333Y68539762D02*
X42523095Y68444524D01*
X42523095Y68444524D02*
X42427857Y68396905D01*
X43618333Y68682620D02*
X43713571Y68682620D01*
X43713571Y68682620D02*
X43808809Y68635000D01*
X43808809Y68635000D02*
X43856428Y68587381D01*
X43856428Y68587381D02*
X43904047Y68492143D01*
X43904047Y68492143D02*
X43951666Y68301667D01*
X43951666Y68301667D02*
X43951666Y68063572D01*
X43951666Y68063572D02*
X43904047Y67873096D01*
X43904047Y67873096D02*
X43856428Y67777858D01*
X43856428Y67777858D02*
X43808809Y67730239D01*
X43808809Y67730239D02*
X43713571Y67682620D01*
X43713571Y67682620D02*
X43618333Y67682620D01*
X43618333Y67682620D02*
X43523095Y67730239D01*
X43523095Y67730239D02*
X43475476Y67777858D01*
X43475476Y67777858D02*
X43427857Y67873096D01*
X43427857Y67873096D02*
X43380238Y68063572D01*
X43380238Y68063572D02*
X43380238Y68301667D01*
X43380238Y68301667D02*
X43427857Y68492143D01*
X43427857Y68492143D02*
X43475476Y68587381D01*
X43475476Y68587381D02*
X43523095Y68635000D01*
X43523095Y68635000D02*
X43618333Y68682620D01*
D11*
X31473571Y64414286D02*
X31473571Y65414286D01*
X31473571Y65414286D02*
X32973571Y64771429D01*
X31973571Y66628571D02*
X32973571Y66628571D01*
X31402142Y66271429D02*
X32473571Y65914286D01*
X32473571Y65914286D02*
X32473571Y66842857D01*
X32973571Y67414285D02*
X31473571Y67414285D01*
X32187857Y67414285D02*
X32187857Y68271428D01*
X32973571Y68271428D02*
X31473571Y68271428D01*
X32830714Y69842857D02*
X32902142Y69771429D01*
X32902142Y69771429D02*
X32973571Y69557143D01*
X32973571Y69557143D02*
X32973571Y69414286D01*
X32973571Y69414286D02*
X32902142Y69200000D01*
X32902142Y69200000D02*
X32759285Y69057143D01*
X32759285Y69057143D02*
X32616428Y68985714D01*
X32616428Y68985714D02*
X32330714Y68914286D01*
X32330714Y68914286D02*
X32116428Y68914286D01*
X32116428Y68914286D02*
X31830714Y68985714D01*
X31830714Y68985714D02*
X31687857Y69057143D01*
X31687857Y69057143D02*
X31545000Y69200000D01*
X31545000Y69200000D02*
X31473571Y69414286D01*
X31473571Y69414286D02*
X31473571Y69557143D01*
X31473571Y69557143D02*
X31545000Y69771429D01*
X31545000Y69771429D02*
X31616428Y69842857D01*
X31473571Y70771429D02*
X31473571Y70914286D01*
X31473571Y70914286D02*
X31545000Y71057143D01*
X31545000Y71057143D02*
X31616428Y71128571D01*
X31616428Y71128571D02*
X31759285Y71200000D01*
X31759285Y71200000D02*
X32045000Y71271429D01*
X32045000Y71271429D02*
X32402142Y71271429D01*
X32402142Y71271429D02*
X32687857Y71200000D01*
X32687857Y71200000D02*
X32830714Y71128571D01*
X32830714Y71128571D02*
X32902142Y71057143D01*
X32902142Y71057143D02*
X32973571Y70914286D01*
X32973571Y70914286D02*
X32973571Y70771429D01*
X32973571Y70771429D02*
X32902142Y70628571D01*
X32902142Y70628571D02*
X32830714Y70557143D01*
X32830714Y70557143D02*
X32687857Y70485714D01*
X32687857Y70485714D02*
X32402142Y70414286D01*
X32402142Y70414286D02*
X32045000Y70414286D01*
X32045000Y70414286D02*
X31759285Y70485714D01*
X31759285Y70485714D02*
X31616428Y70557143D01*
X31616428Y70557143D02*
X31545000Y70628571D01*
X31545000Y70628571D02*
X31473571Y70771429D01*
X32116428Y72128571D02*
X32045000Y71985714D01*
X32045000Y71985714D02*
X31973571Y71914285D01*
X31973571Y71914285D02*
X31830714Y71842857D01*
X31830714Y71842857D02*
X31759285Y71842857D01*
X31759285Y71842857D02*
X31616428Y71914285D01*
X31616428Y71914285D02*
X31545000Y71985714D01*
X31545000Y71985714D02*
X31473571Y72128571D01*
X31473571Y72128571D02*
X31473571Y72414285D01*
X31473571Y72414285D02*
X31545000Y72557142D01*
X31545000Y72557142D02*
X31616428Y72628571D01*
X31616428Y72628571D02*
X31759285Y72700000D01*
X31759285Y72700000D02*
X31830714Y72700000D01*
X31830714Y72700000D02*
X31973571Y72628571D01*
X31973571Y72628571D02*
X32045000Y72557142D01*
X32045000Y72557142D02*
X32116428Y72414285D01*
X32116428Y72414285D02*
X32116428Y72128571D01*
X32116428Y72128571D02*
X32187857Y71985714D01*
X32187857Y71985714D02*
X32259285Y71914285D01*
X32259285Y71914285D02*
X32402142Y71842857D01*
X32402142Y71842857D02*
X32687857Y71842857D01*
X32687857Y71842857D02*
X32830714Y71914285D01*
X32830714Y71914285D02*
X32902142Y71985714D01*
X32902142Y71985714D02*
X32973571Y72128571D01*
X32973571Y72128571D02*
X32973571Y72414285D01*
X32973571Y72414285D02*
X32902142Y72557142D01*
X32902142Y72557142D02*
X32830714Y72628571D01*
X32830714Y72628571D02*
X32687857Y72700000D01*
X32687857Y72700000D02*
X32402142Y72700000D01*
X32402142Y72700000D02*
X32259285Y72628571D01*
X32259285Y72628571D02*
X32187857Y72557142D01*
X32187857Y72557142D02*
X32116428Y72414285D01*
D10*
X63214285Y46717620D02*
X62738095Y46717620D01*
X62738095Y46717620D02*
X62738095Y47717620D01*
X64119047Y46812858D02*
X64071428Y46765239D01*
X64071428Y46765239D02*
X63928571Y46717620D01*
X63928571Y46717620D02*
X63833333Y46717620D01*
X63833333Y46717620D02*
X63690476Y46765239D01*
X63690476Y46765239D02*
X63595238Y46860477D01*
X63595238Y46860477D02*
X63547619Y46955715D01*
X63547619Y46955715D02*
X63500000Y47146191D01*
X63500000Y47146191D02*
X63500000Y47289048D01*
X63500000Y47289048D02*
X63547619Y47479524D01*
X63547619Y47479524D02*
X63595238Y47574762D01*
X63595238Y47574762D02*
X63690476Y47670000D01*
X63690476Y47670000D02*
X63833333Y47717620D01*
X63833333Y47717620D02*
X63928571Y47717620D01*
X63928571Y47717620D02*
X64071428Y47670000D01*
X64071428Y47670000D02*
X64119047Y47622381D01*
X64547619Y46717620D02*
X64547619Y47717620D01*
X64547619Y47717620D02*
X64785714Y47717620D01*
X64785714Y47717620D02*
X64928571Y47670000D01*
X64928571Y47670000D02*
X65023809Y47574762D01*
X65023809Y47574762D02*
X65071428Y47479524D01*
X65071428Y47479524D02*
X65119047Y47289048D01*
X65119047Y47289048D02*
X65119047Y47146191D01*
X65119047Y47146191D02*
X65071428Y46955715D01*
X65071428Y46955715D02*
X65023809Y46860477D01*
X65023809Y46860477D02*
X64928571Y46765239D01*
X64928571Y46765239D02*
X64785714Y46717620D01*
X64785714Y46717620D02*
X64547619Y46717620D01*
X65976190Y47527143D02*
X66166666Y46955715D01*
X65738095Y47527143D02*
X65690476Y47289048D01*
X65690476Y47289048D02*
X65595238Y47098572D01*
X65595238Y47098572D02*
X65500000Y46955715D01*
X66023809Y47622381D02*
X66119047Y47527143D01*
X66166666Y47670000D02*
X66261904Y47574762D01*
X66595238Y47431905D02*
X66690476Y47193810D01*
X66833333Y47479524D02*
X66880952Y47241429D01*
X67119047Y47431905D02*
X67119047Y47193810D01*
X67119047Y47193810D02*
X67071428Y47050953D01*
X67071428Y47050953D02*
X66928571Y46908096D01*
X66928571Y46908096D02*
X66785714Y46812858D01*
X67880952Y47812858D02*
X67833333Y47574762D01*
X67833333Y47574762D02*
X67738095Y47431905D01*
X67738095Y47431905D02*
X67642857Y47241429D01*
X67880952Y47622381D02*
X68166666Y47622381D01*
X68166666Y47622381D02*
X68166666Y47431905D01*
X68166666Y47431905D02*
X68119047Y47241429D01*
X68119047Y47241429D02*
X68023809Y47050953D01*
X68023809Y47050953D02*
X67928571Y46908096D01*
X67928571Y46908096D02*
X67738095Y46765239D01*
X68738095Y47670000D02*
X69214285Y47670000D01*
X68642857Y47431905D02*
X69261904Y47431905D01*
X69261904Y47431905D02*
X69261904Y47193810D01*
X69261904Y47193810D02*
X69166666Y47050953D01*
X69166666Y47050953D02*
X69023809Y46908096D01*
X69023809Y46908096D02*
X68833333Y46765239D01*
X70023809Y47431905D02*
X70023809Y46717620D01*
X70261904Y47765239D02*
X70166666Y47622381D01*
X70166666Y47622381D02*
X70023809Y47431905D01*
X70023809Y47431905D02*
X69833333Y47289048D01*
X69833333Y47289048D02*
X69690476Y47193810D01*
X71071428Y47812858D02*
X71071428Y46765239D01*
X71071428Y47384286D02*
X71357142Y47146191D01*
X31790476Y83365239D02*
X31933333Y83317620D01*
X31933333Y83317620D02*
X32171428Y83317620D01*
X32171428Y83317620D02*
X32266666Y83365239D01*
X32266666Y83365239D02*
X32314285Y83412858D01*
X32314285Y83412858D02*
X32361904Y83508096D01*
X32361904Y83508096D02*
X32361904Y83603334D01*
X32361904Y83603334D02*
X32314285Y83698572D01*
X32314285Y83698572D02*
X32266666Y83746191D01*
X32266666Y83746191D02*
X32171428Y83793810D01*
X32171428Y83793810D02*
X31980952Y83841429D01*
X31980952Y83841429D02*
X31885714Y83889048D01*
X31885714Y83889048D02*
X31838095Y83936667D01*
X31838095Y83936667D02*
X31790476Y84031905D01*
X31790476Y84031905D02*
X31790476Y84127143D01*
X31790476Y84127143D02*
X31838095Y84222381D01*
X31838095Y84222381D02*
X31885714Y84270000D01*
X31885714Y84270000D02*
X31980952Y84317620D01*
X31980952Y84317620D02*
X32219047Y84317620D01*
X32219047Y84317620D02*
X32361904Y84270000D01*
X33123809Y83841429D02*
X33266666Y83793810D01*
X33266666Y83793810D02*
X33314285Y83746191D01*
X33314285Y83746191D02*
X33361904Y83650953D01*
X33361904Y83650953D02*
X33361904Y83508096D01*
X33361904Y83508096D02*
X33314285Y83412858D01*
X33314285Y83412858D02*
X33266666Y83365239D01*
X33266666Y83365239D02*
X33171428Y83317620D01*
X33171428Y83317620D02*
X32790476Y83317620D01*
X32790476Y83317620D02*
X32790476Y84317620D01*
X32790476Y84317620D02*
X33123809Y84317620D01*
X33123809Y84317620D02*
X33219047Y84270000D01*
X33219047Y84270000D02*
X33266666Y84222381D01*
X33266666Y84222381D02*
X33314285Y84127143D01*
X33314285Y84127143D02*
X33314285Y84031905D01*
X33314285Y84031905D02*
X33266666Y83936667D01*
X33266666Y83936667D02*
X33219047Y83889048D01*
X33219047Y83889048D02*
X33123809Y83841429D01*
X33123809Y83841429D02*
X32790476Y83841429D01*
X34361904Y83412858D02*
X34314285Y83365239D01*
X34314285Y83365239D02*
X34171428Y83317620D01*
X34171428Y83317620D02*
X34076190Y83317620D01*
X34076190Y83317620D02*
X33933333Y83365239D01*
X33933333Y83365239D02*
X33838095Y83460477D01*
X33838095Y83460477D02*
X33790476Y83555715D01*
X33790476Y83555715D02*
X33742857Y83746191D01*
X33742857Y83746191D02*
X33742857Y83889048D01*
X33742857Y83889048D02*
X33790476Y84079524D01*
X33790476Y84079524D02*
X33838095Y84174762D01*
X33838095Y84174762D02*
X33933333Y84270000D01*
X33933333Y84270000D02*
X34076190Y84317620D01*
X34076190Y84317620D02*
X34171428Y84317620D01*
X34171428Y84317620D02*
X34314285Y84270000D01*
X34314285Y84270000D02*
X34361904Y84222381D01*
X35219047Y84317620D02*
X35028571Y84317620D01*
X35028571Y84317620D02*
X34933333Y84270000D01*
X34933333Y84270000D02*
X34885714Y84222381D01*
X34885714Y84222381D02*
X34790476Y84079524D01*
X34790476Y84079524D02*
X34742857Y83889048D01*
X34742857Y83889048D02*
X34742857Y83508096D01*
X34742857Y83508096D02*
X34790476Y83412858D01*
X34790476Y83412858D02*
X34838095Y83365239D01*
X34838095Y83365239D02*
X34933333Y83317620D01*
X34933333Y83317620D02*
X35123809Y83317620D01*
X35123809Y83317620D02*
X35219047Y83365239D01*
X35219047Y83365239D02*
X35266666Y83412858D01*
X35266666Y83412858D02*
X35314285Y83508096D01*
X35314285Y83508096D02*
X35314285Y83746191D01*
X35314285Y83746191D02*
X35266666Y83841429D01*
X35266666Y83841429D02*
X35219047Y83889048D01*
X35219047Y83889048D02*
X35123809Y83936667D01*
X35123809Y83936667D02*
X34933333Y83936667D01*
X34933333Y83936667D02*
X34838095Y83889048D01*
X34838095Y83889048D02*
X34790476Y83841429D01*
X34790476Y83841429D02*
X34742857Y83746191D01*
X35885714Y83889048D02*
X35790476Y83936667D01*
X35790476Y83936667D02*
X35742857Y83984286D01*
X35742857Y83984286D02*
X35695238Y84079524D01*
X35695238Y84079524D02*
X35695238Y84127143D01*
X35695238Y84127143D02*
X35742857Y84222381D01*
X35742857Y84222381D02*
X35790476Y84270000D01*
X35790476Y84270000D02*
X35885714Y84317620D01*
X35885714Y84317620D02*
X36076190Y84317620D01*
X36076190Y84317620D02*
X36171428Y84270000D01*
X36171428Y84270000D02*
X36219047Y84222381D01*
X36219047Y84222381D02*
X36266666Y84127143D01*
X36266666Y84127143D02*
X36266666Y84079524D01*
X36266666Y84079524D02*
X36219047Y83984286D01*
X36219047Y83984286D02*
X36171428Y83936667D01*
X36171428Y83936667D02*
X36076190Y83889048D01*
X36076190Y83889048D02*
X35885714Y83889048D01*
X35885714Y83889048D02*
X35790476Y83841429D01*
X35790476Y83841429D02*
X35742857Y83793810D01*
X35742857Y83793810D02*
X35695238Y83698572D01*
X35695238Y83698572D02*
X35695238Y83508096D01*
X35695238Y83508096D02*
X35742857Y83412858D01*
X35742857Y83412858D02*
X35790476Y83365239D01*
X35790476Y83365239D02*
X35885714Y83317620D01*
X35885714Y83317620D02*
X36076190Y83317620D01*
X36076190Y83317620D02*
X36171428Y83365239D01*
X36171428Y83365239D02*
X36219047Y83412858D01*
X36219047Y83412858D02*
X36266666Y83508096D01*
X36266666Y83508096D02*
X36266666Y83698572D01*
X36266666Y83698572D02*
X36219047Y83793810D01*
X36219047Y83793810D02*
X36171428Y83841429D01*
X36171428Y83841429D02*
X36076190Y83889048D01*
X37723809Y84127143D02*
X37914285Y83555715D01*
X37485714Y84127143D02*
X37438095Y83889048D01*
X37438095Y83889048D02*
X37342857Y83698572D01*
X37342857Y83698572D02*
X37247619Y83555715D01*
X37771428Y84222381D02*
X37866666Y84127143D01*
X37914285Y84270000D02*
X38009523Y84174762D01*
X38342857Y84317620D02*
X38771428Y84317620D01*
X38771428Y84317620D02*
X38723809Y84031905D01*
X38723809Y84031905D02*
X38628571Y83841429D01*
X38628571Y83841429D02*
X38533333Y83698572D01*
X38533333Y83698572D02*
X38438095Y83555715D01*
X38438095Y83555715D02*
X38295238Y83412858D01*
X38628571Y83793810D02*
X38723809Y83650953D01*
X38723809Y83650953D02*
X38866666Y83412858D01*
X39390476Y84174762D02*
X39961904Y84174762D01*
X39961904Y84174762D02*
X39961904Y83508096D01*
X39961904Y83508096D02*
X39390476Y83508096D01*
X40628571Y84412858D02*
X40819047Y84270000D01*
X40723809Y83841429D02*
X40723809Y83317620D01*
X40819047Y83793810D02*
X41009523Y83603334D01*
X40485714Y84222381D02*
X40961904Y84222381D01*
X40961904Y84222381D02*
X40866666Y84031905D01*
X40866666Y84031905D02*
X40771428Y83889048D01*
X40771428Y83889048D02*
X40628571Y83746191D01*
X40628571Y83746191D02*
X40390476Y83603334D01*
X41723809Y84412858D02*
X41676190Y84174762D01*
X41676190Y84174762D02*
X41580952Y84031905D01*
X41580952Y84031905D02*
X41485714Y83841429D01*
X41723809Y84222381D02*
X42009523Y84222381D01*
X42009523Y84222381D02*
X42009523Y84031905D01*
X42009523Y84031905D02*
X41961904Y83841429D01*
X41961904Y83841429D02*
X41866666Y83650953D01*
X41866666Y83650953D02*
X41771428Y83508096D01*
X41771428Y83508096D02*
X41580952Y83365239D01*
X42676190Y84031905D02*
X42914285Y83746191D01*
X42723809Y84412858D02*
X42676190Y84222381D01*
X42676190Y84222381D02*
X42628571Y84031905D01*
X42628571Y84031905D02*
X42533333Y83841429D01*
X42723809Y84222381D02*
X43057142Y84222381D01*
X43057142Y84222381D02*
X43009523Y84031905D01*
X43009523Y84031905D02*
X42961904Y83841429D01*
X42961904Y83841429D02*
X42914285Y83650953D01*
X42914285Y83650953D02*
X42819047Y83508096D01*
X42819047Y83508096D02*
X42676190Y83365239D01*
X43485714Y83841429D02*
X44247618Y83841429D01*
X29828571Y79817620D02*
X29923809Y79817620D01*
X29923809Y79817620D02*
X30019047Y79770000D01*
X30019047Y79770000D02*
X30066666Y79722381D01*
X30066666Y79722381D02*
X30114285Y79627143D01*
X30114285Y79627143D02*
X30161904Y79436667D01*
X30161904Y79436667D02*
X30161904Y79198572D01*
X30161904Y79198572D02*
X30114285Y79008096D01*
X30114285Y79008096D02*
X30066666Y78912858D01*
X30066666Y78912858D02*
X30019047Y78865239D01*
X30019047Y78865239D02*
X29923809Y78817620D01*
X29923809Y78817620D02*
X29828571Y78817620D01*
X29828571Y78817620D02*
X29733333Y78865239D01*
X29733333Y78865239D02*
X29685714Y78912858D01*
X29685714Y78912858D02*
X29638095Y79008096D01*
X29638095Y79008096D02*
X29590476Y79198572D01*
X29590476Y79198572D02*
X29590476Y79436667D01*
X29590476Y79436667D02*
X29638095Y79627143D01*
X29638095Y79627143D02*
X29685714Y79722381D01*
X29685714Y79722381D02*
X29733333Y79770000D01*
X29733333Y79770000D02*
X29828571Y79817620D01*
X30590476Y78912858D02*
X30638095Y78865239D01*
X30638095Y78865239D02*
X30590476Y78817620D01*
X30590476Y78817620D02*
X30542857Y78865239D01*
X30542857Y78865239D02*
X30590476Y78912858D01*
X30590476Y78912858D02*
X30590476Y78817620D01*
X31590475Y78817620D02*
X31019047Y78817620D01*
X31304761Y78817620D02*
X31304761Y79817620D01*
X31304761Y79817620D02*
X31209523Y79674762D01*
X31209523Y79674762D02*
X31114285Y79579524D01*
X31114285Y79579524D02*
X31019047Y79531905D01*
X32447618Y79484286D02*
X32447618Y78817620D01*
X32019047Y79484286D02*
X32019047Y78960477D01*
X32019047Y78960477D02*
X32066666Y78865239D01*
X32066666Y78865239D02*
X32161904Y78817620D01*
X32161904Y78817620D02*
X32304761Y78817620D01*
X32304761Y78817620D02*
X32399999Y78865239D01*
X32399999Y78865239D02*
X32447618Y78912858D01*
X65828571Y84617620D02*
X65923809Y84617620D01*
X65923809Y84617620D02*
X66019047Y84570000D01*
X66019047Y84570000D02*
X66066666Y84522381D01*
X66066666Y84522381D02*
X66114285Y84427143D01*
X66114285Y84427143D02*
X66161904Y84236667D01*
X66161904Y84236667D02*
X66161904Y83998572D01*
X66161904Y83998572D02*
X66114285Y83808096D01*
X66114285Y83808096D02*
X66066666Y83712858D01*
X66066666Y83712858D02*
X66019047Y83665239D01*
X66019047Y83665239D02*
X65923809Y83617620D01*
X65923809Y83617620D02*
X65828571Y83617620D01*
X65828571Y83617620D02*
X65733333Y83665239D01*
X65733333Y83665239D02*
X65685714Y83712858D01*
X65685714Y83712858D02*
X65638095Y83808096D01*
X65638095Y83808096D02*
X65590476Y83998572D01*
X65590476Y83998572D02*
X65590476Y84236667D01*
X65590476Y84236667D02*
X65638095Y84427143D01*
X65638095Y84427143D02*
X65685714Y84522381D01*
X65685714Y84522381D02*
X65733333Y84570000D01*
X65733333Y84570000D02*
X65828571Y84617620D01*
X66590476Y83712858D02*
X66638095Y83665239D01*
X66638095Y83665239D02*
X66590476Y83617620D01*
X66590476Y83617620D02*
X66542857Y83665239D01*
X66542857Y83665239D02*
X66590476Y83712858D01*
X66590476Y83712858D02*
X66590476Y83617620D01*
X67590475Y83617620D02*
X67019047Y83617620D01*
X67304761Y83617620D02*
X67304761Y84617620D01*
X67304761Y84617620D02*
X67209523Y84474762D01*
X67209523Y84474762D02*
X67114285Y84379524D01*
X67114285Y84379524D02*
X67019047Y84331905D01*
X68447618Y84284286D02*
X68447618Y83617620D01*
X68019047Y84284286D02*
X68019047Y83760477D01*
X68019047Y83760477D02*
X68066666Y83665239D01*
X68066666Y83665239D02*
X68161904Y83617620D01*
X68161904Y83617620D02*
X68304761Y83617620D01*
X68304761Y83617620D02*
X68399999Y83665239D01*
X68399999Y83665239D02*
X68447618Y83712858D01*
X41475476Y60230239D02*
X41618333Y60182620D01*
X41618333Y60182620D02*
X41856428Y60182620D01*
X41856428Y60182620D02*
X41951666Y60230239D01*
X41951666Y60230239D02*
X41999285Y60277858D01*
X41999285Y60277858D02*
X42046904Y60373096D01*
X42046904Y60373096D02*
X42046904Y60468334D01*
X42046904Y60468334D02*
X41999285Y60563572D01*
X41999285Y60563572D02*
X41951666Y60611191D01*
X41951666Y60611191D02*
X41856428Y60658810D01*
X41856428Y60658810D02*
X41665952Y60706429D01*
X41665952Y60706429D02*
X41570714Y60754048D01*
X41570714Y60754048D02*
X41523095Y60801667D01*
X41523095Y60801667D02*
X41475476Y60896905D01*
X41475476Y60896905D02*
X41475476Y60992143D01*
X41475476Y60992143D02*
X41523095Y61087381D01*
X41523095Y61087381D02*
X41570714Y61135000D01*
X41570714Y61135000D02*
X41665952Y61182620D01*
X41665952Y61182620D02*
X41904047Y61182620D01*
X41904047Y61182620D02*
X42046904Y61135000D01*
X41761190Y61325477D02*
X41761190Y60039762D01*
X42999285Y60182620D02*
X42427857Y60182620D01*
X42713571Y60182620D02*
X42713571Y61182620D01*
X42713571Y61182620D02*
X42618333Y61039762D01*
X42618333Y61039762D02*
X42523095Y60944524D01*
X42523095Y60944524D02*
X42427857Y60896905D01*
X43999285Y60277858D02*
X43951666Y60230239D01*
X43951666Y60230239D02*
X43808809Y60182620D01*
X43808809Y60182620D02*
X43713571Y60182620D01*
X43713571Y60182620D02*
X43570714Y60230239D01*
X43570714Y60230239D02*
X43475476Y60325477D01*
X43475476Y60325477D02*
X43427857Y60420715D01*
X43427857Y60420715D02*
X43380238Y60611191D01*
X43380238Y60611191D02*
X43380238Y60754048D01*
X43380238Y60754048D02*
X43427857Y60944524D01*
X43427857Y60944524D02*
X43475476Y61039762D01*
X43475476Y61039762D02*
X43570714Y61135000D01*
X43570714Y61135000D02*
X43713571Y61182620D01*
X43713571Y61182620D02*
X43808809Y61182620D01*
X43808809Y61182620D02*
X43951666Y61135000D01*
X43951666Y61135000D02*
X43999285Y61087381D01*
X80186904Y53742620D02*
X79615476Y53742620D01*
X79901190Y53742620D02*
X79901190Y54742620D01*
X79901190Y54742620D02*
X79805952Y54599762D01*
X79805952Y54599762D02*
X79710714Y54504524D01*
X79710714Y54504524D02*
X79615476Y54456905D01*
X80805952Y54742620D02*
X80901190Y54742620D01*
X80901190Y54742620D02*
X80996428Y54695000D01*
X80996428Y54695000D02*
X81044047Y54647381D01*
X81044047Y54647381D02*
X81091666Y54552143D01*
X81091666Y54552143D02*
X81139285Y54361667D01*
X81139285Y54361667D02*
X81139285Y54123572D01*
X81139285Y54123572D02*
X81091666Y53933096D01*
X81091666Y53933096D02*
X81044047Y53837858D01*
X81044047Y53837858D02*
X80996428Y53790239D01*
X80996428Y53790239D02*
X80901190Y53742620D01*
X80901190Y53742620D02*
X80805952Y53742620D01*
X80805952Y53742620D02*
X80710714Y53790239D01*
X80710714Y53790239D02*
X80663095Y53837858D01*
X80663095Y53837858D02*
X80615476Y53933096D01*
X80615476Y53933096D02*
X80567857Y54123572D01*
X80567857Y54123572D02*
X80567857Y54361667D01*
X80567857Y54361667D02*
X80615476Y54552143D01*
X80615476Y54552143D02*
X80663095Y54647381D01*
X80663095Y54647381D02*
X80710714Y54695000D01*
X80710714Y54695000D02*
X80805952Y54742620D01*
X81567857Y53742620D02*
X81567857Y54742620D01*
X81663095Y54123572D02*
X81948809Y53742620D01*
X81948809Y54409286D02*
X81567857Y54028334D01*
D11*
X80473571Y67314286D02*
X80473571Y68314286D01*
X80473571Y68314286D02*
X81973571Y67671429D01*
X80973571Y69528571D02*
X81973571Y69528571D01*
X80402142Y69171429D02*
X81473571Y68814286D01*
X81473571Y68814286D02*
X81473571Y69742857D01*
X81973571Y70314285D02*
X80473571Y70314285D01*
X81187857Y70314285D02*
X81187857Y71171428D01*
X81973571Y71171428D02*
X80473571Y71171428D01*
X81830714Y72742857D02*
X81902142Y72671429D01*
X81902142Y72671429D02*
X81973571Y72457143D01*
X81973571Y72457143D02*
X81973571Y72314286D01*
X81973571Y72314286D02*
X81902142Y72100000D01*
X81902142Y72100000D02*
X81759285Y71957143D01*
X81759285Y71957143D02*
X81616428Y71885714D01*
X81616428Y71885714D02*
X81330714Y71814286D01*
X81330714Y71814286D02*
X81116428Y71814286D01*
X81116428Y71814286D02*
X80830714Y71885714D01*
X80830714Y71885714D02*
X80687857Y71957143D01*
X80687857Y71957143D02*
X80545000Y72100000D01*
X80545000Y72100000D02*
X80473571Y72314286D01*
X80473571Y72314286D02*
X80473571Y72457143D01*
X80473571Y72457143D02*
X80545000Y72671429D01*
X80545000Y72671429D02*
X80616428Y72742857D01*
X80473571Y73671429D02*
X80473571Y73814286D01*
X80473571Y73814286D02*
X80545000Y73957143D01*
X80545000Y73957143D02*
X80616428Y74028571D01*
X80616428Y74028571D02*
X80759285Y74100000D01*
X80759285Y74100000D02*
X81045000Y74171429D01*
X81045000Y74171429D02*
X81402142Y74171429D01*
X81402142Y74171429D02*
X81687857Y74100000D01*
X81687857Y74100000D02*
X81830714Y74028571D01*
X81830714Y74028571D02*
X81902142Y73957143D01*
X81902142Y73957143D02*
X81973571Y73814286D01*
X81973571Y73814286D02*
X81973571Y73671429D01*
X81973571Y73671429D02*
X81902142Y73528571D01*
X81902142Y73528571D02*
X81830714Y73457143D01*
X81830714Y73457143D02*
X81687857Y73385714D01*
X81687857Y73385714D02*
X81402142Y73314286D01*
X81402142Y73314286D02*
X81045000Y73314286D01*
X81045000Y73314286D02*
X80759285Y73385714D01*
X80759285Y73385714D02*
X80616428Y73457143D01*
X80616428Y73457143D02*
X80545000Y73528571D01*
X80545000Y73528571D02*
X80473571Y73671429D01*
X80973571Y75457142D02*
X81973571Y75457142D01*
X80402142Y75100000D02*
X81473571Y74742857D01*
X81473571Y74742857D02*
X81473571Y75671428D01*
D10*
X68386904Y55542620D02*
X67815476Y55542620D01*
X68101190Y55542620D02*
X68101190Y56542620D01*
X68101190Y56542620D02*
X68005952Y56399762D01*
X68005952Y56399762D02*
X67910714Y56304524D01*
X67910714Y56304524D02*
X67815476Y56256905D01*
X68815476Y55542620D02*
X68815476Y56542620D01*
X68910714Y55923572D02*
X69196428Y55542620D01*
X69196428Y56209286D02*
X68815476Y55828334D01*
X3198571Y23170000D02*
X4103333Y23170000D01*
X3341428Y22931905D02*
X3341428Y22217620D01*
X3627142Y23360477D02*
X3627142Y23170000D01*
X3674761Y22789048D02*
X3817619Y22693810D01*
X2912857Y23312858D02*
X3103333Y23217620D01*
X2865238Y22979524D02*
X3055714Y22884286D01*
X3579523Y22836667D02*
X3674761Y22550953D01*
X3674761Y22550953D02*
X3912857Y22312858D01*
X3912857Y22312858D02*
X4103333Y22217620D01*
X3055714Y22598572D02*
X2912857Y22217620D01*
X3389047Y23122381D02*
X3198571Y22741429D01*
X3674761Y23122381D02*
X3579523Y22836667D01*
X3579523Y22836667D02*
X3436666Y22693810D01*
X3579523Y22931905D02*
X4055714Y22931905D01*
X4055714Y22931905D02*
X3865238Y22550953D01*
X3865238Y22550953D02*
X3674761Y22312858D01*
X3674761Y22312858D02*
X3436666Y22217620D01*
X4579523Y23074762D02*
X5341428Y23074762D01*
X4579523Y22884286D02*
X5341428Y22884286D01*
X4341428Y22503334D02*
X4865237Y22503334D01*
X5103332Y22503334D02*
X5579523Y22503334D01*
X4341428Y22265239D02*
X4865237Y22265239D01*
X5103332Y22265239D02*
X5579523Y22265239D01*
X4341428Y22741429D02*
X4341428Y22217620D01*
X4579523Y23312858D02*
X4579523Y22884286D01*
X4341428Y22741429D02*
X4865237Y22741429D01*
X4865237Y22741429D02*
X4865237Y22217620D01*
X5103332Y22741429D02*
X5103332Y22217620D01*
X4579523Y23312858D02*
X5341428Y23312858D01*
X5341428Y23312858D02*
X5341428Y22884286D01*
X5103332Y22741429D02*
X5579523Y22741429D01*
X5579523Y22741429D02*
X5579523Y22217620D01*
X5817618Y23074762D02*
X6246189Y23074762D01*
X6389046Y23027143D02*
X7008094Y23027143D01*
X6293808Y22884286D02*
X7055713Y22884286D01*
X6055713Y23312858D02*
X6055713Y23074762D01*
X6341427Y22693810D02*
X6341427Y22217620D01*
X6389046Y23265239D02*
X6389046Y23027143D01*
X6579522Y22693810D02*
X6579522Y22217620D01*
X6674760Y22884286D02*
X6627141Y22693810D01*
X6674760Y23360477D02*
X6674760Y23027143D01*
X6817618Y22693810D02*
X6817618Y22217620D01*
X7008094Y23265239D02*
X7008094Y23027143D01*
X6150951Y22979524D02*
X6103332Y22455715D01*
X6246189Y22503334D02*
X5817618Y22408096D01*
X5912856Y22979524D02*
X5960475Y22550953D01*
X6341427Y22693810D02*
X7008094Y22693810D01*
X7008094Y22693810D02*
X7008094Y22217620D01*
X7008094Y22217620D02*
X6960475Y22217620D01*
X7293808Y22741429D02*
X8531903Y22741429D01*
X7627141Y22217620D02*
X7912855Y22217620D01*
X7912855Y22979524D02*
X7912855Y22217620D01*
X7436665Y23217620D02*
X8389046Y23217620D01*
X8389046Y23217620D02*
X8246189Y23122381D01*
X8246189Y23122381D02*
X7912855Y22979524D01*
X8865236Y23122381D02*
X8912855Y23170000D01*
X8912855Y23170000D02*
X9008093Y23217620D01*
X9008093Y23217620D02*
X9246188Y23217620D01*
X9246188Y23217620D02*
X9341426Y23170000D01*
X9341426Y23170000D02*
X9389045Y23122381D01*
X9389045Y23122381D02*
X9436664Y23027143D01*
X9436664Y23027143D02*
X9436664Y22931905D01*
X9436664Y22931905D02*
X9389045Y22789048D01*
X9389045Y22789048D02*
X8817617Y22217620D01*
X8817617Y22217620D02*
X9436664Y22217620D01*
X9769998Y23265239D02*
X10484283Y23265239D01*
X10722379Y22217620D02*
X10960474Y22217620D01*
X10579521Y23217620D02*
X10579521Y22550953D01*
X10960474Y23312858D02*
X10960474Y22217620D01*
X9865236Y22789048D02*
X10246188Y22598572D01*
X10055712Y23265239D02*
X9865236Y22836667D01*
X9865236Y22836667D02*
X9722379Y22693810D01*
X9912855Y22931905D02*
X10389045Y22931905D01*
X10389045Y22931905D02*
X10198569Y22550953D01*
X10198569Y22550953D02*
X9912855Y22217620D01*
X41475476Y77730239D02*
X41618333Y77682620D01*
X41618333Y77682620D02*
X41856428Y77682620D01*
X41856428Y77682620D02*
X41951666Y77730239D01*
X41951666Y77730239D02*
X41999285Y77777858D01*
X41999285Y77777858D02*
X42046904Y77873096D01*
X42046904Y77873096D02*
X42046904Y77968334D01*
X42046904Y77968334D02*
X41999285Y78063572D01*
X41999285Y78063572D02*
X41951666Y78111191D01*
X41951666Y78111191D02*
X41856428Y78158810D01*
X41856428Y78158810D02*
X41665952Y78206429D01*
X41665952Y78206429D02*
X41570714Y78254048D01*
X41570714Y78254048D02*
X41523095Y78301667D01*
X41523095Y78301667D02*
X41475476Y78396905D01*
X41475476Y78396905D02*
X41475476Y78492143D01*
X41475476Y78492143D02*
X41523095Y78587381D01*
X41523095Y78587381D02*
X41570714Y78635000D01*
X41570714Y78635000D02*
X41665952Y78682620D01*
X41665952Y78682620D02*
X41904047Y78682620D01*
X41904047Y78682620D02*
X42046904Y78635000D01*
X41761190Y78825477D02*
X41761190Y77539762D01*
X42665952Y78682620D02*
X42761190Y78682620D01*
X42761190Y78682620D02*
X42856428Y78635000D01*
X42856428Y78635000D02*
X42904047Y78587381D01*
X42904047Y78587381D02*
X42951666Y78492143D01*
X42951666Y78492143D02*
X42999285Y78301667D01*
X42999285Y78301667D02*
X42999285Y78063572D01*
X42999285Y78063572D02*
X42951666Y77873096D01*
X42951666Y77873096D02*
X42904047Y77777858D01*
X42904047Y77777858D02*
X42856428Y77730239D01*
X42856428Y77730239D02*
X42761190Y77682620D01*
X42761190Y77682620D02*
X42665952Y77682620D01*
X42665952Y77682620D02*
X42570714Y77730239D01*
X42570714Y77730239D02*
X42523095Y77777858D01*
X42523095Y77777858D02*
X42475476Y77873096D01*
X42475476Y77873096D02*
X42427857Y78063572D01*
X42427857Y78063572D02*
X42427857Y78301667D01*
X42427857Y78301667D02*
X42475476Y78492143D01*
X42475476Y78492143D02*
X42523095Y78587381D01*
X42523095Y78587381D02*
X42570714Y78635000D01*
X42570714Y78635000D02*
X42665952Y78682620D01*
X43618333Y78682620D02*
X43713571Y78682620D01*
X43713571Y78682620D02*
X43808809Y78635000D01*
X43808809Y78635000D02*
X43856428Y78587381D01*
X43856428Y78587381D02*
X43904047Y78492143D01*
X43904047Y78492143D02*
X43951666Y78301667D01*
X43951666Y78301667D02*
X43951666Y78063572D01*
X43951666Y78063572D02*
X43904047Y77873096D01*
X43904047Y77873096D02*
X43856428Y77777858D01*
X43856428Y77777858D02*
X43808809Y77730239D01*
X43808809Y77730239D02*
X43713571Y77682620D01*
X43713571Y77682620D02*
X43618333Y77682620D01*
X43618333Y77682620D02*
X43523095Y77730239D01*
X43523095Y77730239D02*
X43475476Y77777858D01*
X43475476Y77777858D02*
X43427857Y77873096D01*
X43427857Y77873096D02*
X43380238Y78063572D01*
X43380238Y78063572D02*
X43380238Y78301667D01*
X43380238Y78301667D02*
X43427857Y78492143D01*
X43427857Y78492143D02*
X43475476Y78587381D01*
X43475476Y78587381D02*
X43523095Y78635000D01*
X43523095Y78635000D02*
X43618333Y78682620D01*
X41475476Y75230239D02*
X41618333Y75182620D01*
X41618333Y75182620D02*
X41856428Y75182620D01*
X41856428Y75182620D02*
X41951666Y75230239D01*
X41951666Y75230239D02*
X41999285Y75277858D01*
X41999285Y75277858D02*
X42046904Y75373096D01*
X42046904Y75373096D02*
X42046904Y75468334D01*
X42046904Y75468334D02*
X41999285Y75563572D01*
X41999285Y75563572D02*
X41951666Y75611191D01*
X41951666Y75611191D02*
X41856428Y75658810D01*
X41856428Y75658810D02*
X41665952Y75706429D01*
X41665952Y75706429D02*
X41570714Y75754048D01*
X41570714Y75754048D02*
X41523095Y75801667D01*
X41523095Y75801667D02*
X41475476Y75896905D01*
X41475476Y75896905D02*
X41475476Y75992143D01*
X41475476Y75992143D02*
X41523095Y76087381D01*
X41523095Y76087381D02*
X41570714Y76135000D01*
X41570714Y76135000D02*
X41665952Y76182620D01*
X41665952Y76182620D02*
X41904047Y76182620D01*
X41904047Y76182620D02*
X42046904Y76135000D01*
X41761190Y76325477D02*
X41761190Y75039762D01*
X42665952Y76182620D02*
X42761190Y76182620D01*
X42761190Y76182620D02*
X42856428Y76135000D01*
X42856428Y76135000D02*
X42904047Y76087381D01*
X42904047Y76087381D02*
X42951666Y75992143D01*
X42951666Y75992143D02*
X42999285Y75801667D01*
X42999285Y75801667D02*
X42999285Y75563572D01*
X42999285Y75563572D02*
X42951666Y75373096D01*
X42951666Y75373096D02*
X42904047Y75277858D01*
X42904047Y75277858D02*
X42856428Y75230239D01*
X42856428Y75230239D02*
X42761190Y75182620D01*
X42761190Y75182620D02*
X42665952Y75182620D01*
X42665952Y75182620D02*
X42570714Y75230239D01*
X42570714Y75230239D02*
X42523095Y75277858D01*
X42523095Y75277858D02*
X42475476Y75373096D01*
X42475476Y75373096D02*
X42427857Y75563572D01*
X42427857Y75563572D02*
X42427857Y75801667D01*
X42427857Y75801667D02*
X42475476Y75992143D01*
X42475476Y75992143D02*
X42523095Y76087381D01*
X42523095Y76087381D02*
X42570714Y76135000D01*
X42570714Y76135000D02*
X42665952Y76182620D01*
X43856428Y75849286D02*
X43856428Y75182620D01*
X43618333Y76230239D02*
X43380238Y75515953D01*
X43380238Y75515953D02*
X43999285Y75515953D01*
D12*
X26714285Y20152858D02*
X26714285Y23152858D01*
X28428571Y20152858D02*
X27142857Y21867143D01*
X28428571Y23152858D02*
X26714285Y21438572D01*
X31000000Y23152858D02*
X30428571Y23152858D01*
X30428571Y23152858D02*
X30142857Y23010000D01*
X30142857Y23010000D02*
X30000000Y22867143D01*
X30000000Y22867143D02*
X29714285Y22438572D01*
X29714285Y22438572D02*
X29571428Y21867143D01*
X29571428Y21867143D02*
X29571428Y20724286D01*
X29571428Y20724286D02*
X29714285Y20438572D01*
X29714285Y20438572D02*
X29857142Y20295715D01*
X29857142Y20295715D02*
X30142857Y20152858D01*
X30142857Y20152858D02*
X30714285Y20152858D01*
X30714285Y20152858D02*
X31000000Y20295715D01*
X31000000Y20295715D02*
X31142857Y20438572D01*
X31142857Y20438572D02*
X31285714Y20724286D01*
X31285714Y20724286D02*
X31285714Y21438572D01*
X31285714Y21438572D02*
X31142857Y21724286D01*
X31142857Y21724286D02*
X31000000Y21867143D01*
X31000000Y21867143D02*
X30714285Y22010000D01*
X30714285Y22010000D02*
X30142857Y22010000D01*
X30142857Y22010000D02*
X29857142Y21867143D01*
X29857142Y21867143D02*
X29714285Y21724286D01*
X29714285Y21724286D02*
X29571428Y21438572D01*
X33000000Y21867143D02*
X32714285Y22010000D01*
X32714285Y22010000D02*
X32571428Y22152858D01*
X32571428Y22152858D02*
X32428571Y22438572D01*
X32428571Y22438572D02*
X32428571Y22581429D01*
X32428571Y22581429D02*
X32571428Y22867143D01*
X32571428Y22867143D02*
X32714285Y23010000D01*
X32714285Y23010000D02*
X33000000Y23152858D01*
X33000000Y23152858D02*
X33571428Y23152858D01*
X33571428Y23152858D02*
X33857143Y23010000D01*
X33857143Y23010000D02*
X34000000Y22867143D01*
X34000000Y22867143D02*
X34142857Y22581429D01*
X34142857Y22581429D02*
X34142857Y22438572D01*
X34142857Y22438572D02*
X34000000Y22152858D01*
X34000000Y22152858D02*
X33857143Y22010000D01*
X33857143Y22010000D02*
X33571428Y21867143D01*
X33571428Y21867143D02*
X33000000Y21867143D01*
X33000000Y21867143D02*
X32714285Y21724286D01*
X32714285Y21724286D02*
X32571428Y21581429D01*
X32571428Y21581429D02*
X32428571Y21295715D01*
X32428571Y21295715D02*
X32428571Y20724286D01*
X32428571Y20724286D02*
X32571428Y20438572D01*
X32571428Y20438572D02*
X32714285Y20295715D01*
X32714285Y20295715D02*
X33000000Y20152858D01*
X33000000Y20152858D02*
X33571428Y20152858D01*
X33571428Y20152858D02*
X33857143Y20295715D01*
X33857143Y20295715D02*
X34000000Y20438572D01*
X34000000Y20438572D02*
X34142857Y20724286D01*
X34142857Y20724286D02*
X34142857Y21295715D01*
X34142857Y21295715D02*
X34000000Y21581429D01*
X34000000Y21581429D02*
X33857143Y21724286D01*
X33857143Y21724286D02*
X33571428Y21867143D01*
X35285714Y22581429D02*
X37142857Y22581429D01*
X37142857Y22581429D02*
X36857143Y22010000D01*
X36857143Y22010000D02*
X36571428Y21581429D01*
X36571428Y21581429D02*
X36285714Y21295715D01*
X35714286Y21724286D02*
X36142857Y21295715D01*
X36142857Y21295715D02*
X36285714Y21010000D01*
X36285714Y21010000D02*
X36571428Y20581429D01*
X39428571Y22295715D02*
X39428571Y20152858D01*
X40142857Y23295715D02*
X39857143Y22867143D01*
X39857143Y22867143D02*
X39428571Y22295715D01*
X39428571Y22295715D02*
X38857143Y21867143D01*
X38857143Y21867143D02*
X38428571Y21581429D01*
X41714285Y22724286D02*
X43428571Y22724286D01*
X43428571Y22724286D02*
X43428571Y20724286D01*
X43428571Y20724286D02*
X41714285Y20724286D01*
X44857142Y22867143D02*
X45428571Y22295715D01*
X44857142Y20581429D02*
X45571428Y20724286D01*
X45571428Y20724286D02*
X45999999Y21152858D01*
X45999999Y21152858D02*
X46285714Y21581429D01*
X46285714Y21581429D02*
X46571428Y22581429D01*
X50371428Y23010000D02*
X53085714Y23010000D01*
X50799999Y22295715D02*
X50799999Y20152858D01*
X51657142Y23581429D02*
X51657142Y23010000D01*
X51799999Y21867143D02*
X52228571Y21581429D01*
X49514285Y23438572D02*
X50085714Y23152858D01*
X49371428Y22438572D02*
X49942856Y22152858D01*
X51514285Y22010000D02*
X51799999Y21152858D01*
X51799999Y21152858D02*
X52514285Y20438572D01*
X52514285Y20438572D02*
X53085714Y20152858D01*
X49942856Y21295715D02*
X49514285Y20152858D01*
X50942856Y22867143D02*
X50371428Y21724286D01*
X51799999Y22867143D02*
X51514285Y22010000D01*
X51514285Y22010000D02*
X51085714Y21581429D01*
X51514285Y22295715D02*
X52942856Y22295715D01*
X52942856Y22295715D02*
X52371428Y21152858D01*
X52371428Y21152858D02*
X51799999Y20438572D01*
X51799999Y20438572D02*
X51085714Y20152858D01*
X54514285Y22724286D02*
X56799999Y22724286D01*
X54514285Y22152858D02*
X56799999Y22152858D01*
X53799999Y21010000D02*
X55371427Y21010000D01*
X56085713Y21010000D02*
X57514285Y21010000D01*
X53799999Y20295715D02*
X55371427Y20295715D01*
X56085713Y20295715D02*
X57514285Y20295715D01*
X53799999Y21724286D02*
X53799999Y20152858D01*
X54514285Y23438572D02*
X54514285Y22152858D01*
X53799999Y21724286D02*
X55371427Y21724286D01*
X55371427Y21724286D02*
X55371427Y20152858D01*
X56085713Y21724286D02*
X56085713Y20152858D01*
X54514285Y23438572D02*
X56799999Y23438572D01*
X56799999Y23438572D02*
X56799999Y22152858D01*
X56085713Y21724286D02*
X57514285Y21724286D01*
X57514285Y21724286D02*
X57514285Y20152858D01*
X58371427Y23010000D02*
X61799998Y23010000D01*
X59228570Y22581429D02*
X61085713Y22581429D01*
X59228570Y22010000D02*
X61085713Y22010000D01*
X58228570Y21581429D02*
X61942856Y21581429D01*
X59085713Y20867143D02*
X61085713Y20867143D01*
X58514284Y20152858D02*
X61657141Y20152858D01*
X60085713Y21295715D02*
X60085713Y20152858D01*
X59228570Y23581429D02*
X59228570Y21581429D01*
X59228570Y21581429D02*
X58514284Y20724286D01*
X61085713Y23581429D02*
X61085713Y21581429D01*
X61085713Y21581429D02*
X61371427Y21010000D01*
X61371427Y21010000D02*
X62085713Y20724286D01*
X64371427Y23295715D02*
X66228569Y23295715D01*
X62799998Y22724286D02*
X64085712Y22724286D01*
X63514284Y23581429D02*
X63514284Y20152858D01*
X63514284Y22152858D02*
X64085712Y21581429D01*
X64657141Y22295715D02*
X65228569Y21010000D01*
X65228569Y21010000D02*
X65942855Y20438572D01*
X65942855Y20438572D02*
X66371427Y20152858D01*
X63371427Y22581429D02*
X62657141Y21010000D01*
X64371427Y22295715D02*
X66228569Y22295715D01*
X66228569Y22295715D02*
X65657141Y21152858D01*
X65657141Y21152858D02*
X65085712Y20438572D01*
X65085712Y20438572D02*
X64514284Y20152858D01*
X64371427Y23295715D02*
X64371427Y21581429D01*
X64371427Y21581429D02*
X64228569Y20438572D01*
X72371426Y20152858D02*
X71371426Y21581429D01*
X70657140Y20152858D02*
X70657140Y23152858D01*
X70657140Y23152858D02*
X71799997Y23152858D01*
X71799997Y23152858D02*
X72085712Y23010000D01*
X72085712Y23010000D02*
X72228569Y22867143D01*
X72228569Y22867143D02*
X72371426Y22581429D01*
X72371426Y22581429D02*
X72371426Y22152858D01*
X72371426Y22152858D02*
X72228569Y21867143D01*
X72228569Y21867143D02*
X72085712Y21724286D01*
X72085712Y21724286D02*
X71799997Y21581429D01*
X71799997Y21581429D02*
X70657140Y21581429D01*
X73657140Y21724286D02*
X74657140Y21724286D01*
X75085712Y20152858D02*
X73657140Y20152858D01*
X73657140Y20152858D02*
X73657140Y23152858D01*
X73657140Y23152858D02*
X75085712Y23152858D01*
X75942855Y23152858D02*
X76942855Y20152858D01*
X76942855Y20152858D02*
X77942855Y23152858D01*
X80514284Y20152858D02*
X78799998Y20152858D01*
X79657141Y20152858D02*
X79657141Y23152858D01*
X79657141Y23152858D02*
X79371427Y22724286D01*
X79371427Y22724286D02*
X79085712Y22438572D01*
X79085712Y22438572D02*
X78799998Y22295715D01*
D10*
X1842380Y48748096D02*
X842380Y48748096D01*
X794761Y49938571D02*
X2080476Y49081429D01*
X842380Y50462381D02*
X842380Y50652857D01*
X842380Y50652857D02*
X890000Y50748095D01*
X890000Y50748095D02*
X985238Y50843333D01*
X985238Y50843333D02*
X1175714Y50890952D01*
X1175714Y50890952D02*
X1509047Y50890952D01*
X1509047Y50890952D02*
X1699523Y50843333D01*
X1699523Y50843333D02*
X1794761Y50748095D01*
X1794761Y50748095D02*
X1842380Y50652857D01*
X1842380Y50652857D02*
X1842380Y50462381D01*
X1842380Y50462381D02*
X1794761Y50367143D01*
X1794761Y50367143D02*
X1699523Y50271905D01*
X1699523Y50271905D02*
X1509047Y50224286D01*
X1509047Y50224286D02*
X1175714Y50224286D01*
X1175714Y50224286D02*
X985238Y50271905D01*
X985238Y50271905D02*
X890000Y50367143D01*
X890000Y50367143D02*
X842380Y50462381D01*
X985238Y51176667D02*
X985238Y51605238D01*
X1032857Y51748095D02*
X1032857Y52367143D01*
X1175714Y51652857D02*
X1175714Y52414762D01*
X747142Y51414762D02*
X985238Y51414762D01*
X1366190Y51700476D02*
X1842380Y51700476D01*
X794761Y51748095D02*
X1032857Y51748095D01*
X1366190Y51938571D02*
X1842380Y51938571D01*
X1175714Y52033809D02*
X1366190Y51986190D01*
X699523Y52033809D02*
X1032857Y52033809D01*
X1366190Y52176667D02*
X1842380Y52176667D01*
X794761Y52367143D02*
X1032857Y52367143D01*
X1080476Y51510000D02*
X1604285Y51462381D01*
X1556666Y51605238D02*
X1651904Y51176667D01*
X1080476Y51271905D02*
X1509047Y51319524D01*
X1366190Y51700476D02*
X1366190Y52367143D01*
X1366190Y52367143D02*
X1842380Y52367143D01*
X1842380Y52367143D02*
X1842380Y52319524D01*
X1318571Y52652857D02*
X1318571Y53890952D01*
X1842380Y52986190D02*
X1842380Y53271904D01*
X1080476Y53271904D02*
X1842380Y53271904D01*
X842380Y52795714D02*
X842380Y53748095D01*
X842380Y53748095D02*
X937619Y53605238D01*
X937619Y53605238D02*
X1080476Y53271904D01*
X1461428Y54271904D02*
X1461428Y55033808D01*
X1318571Y55843332D02*
X1366190Y55986189D01*
X1366190Y55986189D02*
X1413809Y56033808D01*
X1413809Y56033808D02*
X1509047Y56081427D01*
X1509047Y56081427D02*
X1651904Y56081427D01*
X1651904Y56081427D02*
X1747142Y56033808D01*
X1747142Y56033808D02*
X1794761Y55986189D01*
X1794761Y55986189D02*
X1842380Y55890951D01*
X1842380Y55890951D02*
X1842380Y55509999D01*
X1842380Y55509999D02*
X842380Y55509999D01*
X842380Y55509999D02*
X842380Y55843332D01*
X842380Y55843332D02*
X890000Y55938570D01*
X890000Y55938570D02*
X937619Y55986189D01*
X937619Y55986189D02*
X1032857Y56033808D01*
X1032857Y56033808D02*
X1128095Y56033808D01*
X1128095Y56033808D02*
X1223333Y55986189D01*
X1223333Y55986189D02*
X1270952Y55938570D01*
X1270952Y55938570D02*
X1318571Y55843332D01*
X1318571Y55843332D02*
X1318571Y55509999D01*
D11*
X67673571Y66614286D02*
X67673571Y67614286D01*
X67673571Y67614286D02*
X69173571Y66971429D01*
X68173571Y68828571D02*
X69173571Y68828571D01*
X67602142Y68471429D02*
X68673571Y68114286D01*
X68673571Y68114286D02*
X68673571Y69042857D01*
X69173571Y69614285D02*
X67673571Y69614285D01*
X68387857Y69614285D02*
X68387857Y70471428D01*
X69173571Y70471428D02*
X67673571Y70471428D01*
X69030714Y72042857D02*
X69102142Y71971429D01*
X69102142Y71971429D02*
X69173571Y71757143D01*
X69173571Y71757143D02*
X69173571Y71614286D01*
X69173571Y71614286D02*
X69102142Y71400000D01*
X69102142Y71400000D02*
X68959285Y71257143D01*
X68959285Y71257143D02*
X68816428Y71185714D01*
X68816428Y71185714D02*
X68530714Y71114286D01*
X68530714Y71114286D02*
X68316428Y71114286D01*
X68316428Y71114286D02*
X68030714Y71185714D01*
X68030714Y71185714D02*
X67887857Y71257143D01*
X67887857Y71257143D02*
X67745000Y71400000D01*
X67745000Y71400000D02*
X67673571Y71614286D01*
X67673571Y71614286D02*
X67673571Y71757143D01*
X67673571Y71757143D02*
X67745000Y71971429D01*
X67745000Y71971429D02*
X67816428Y72042857D01*
X69173571Y73471429D02*
X69173571Y72614286D01*
X69173571Y73042857D02*
X67673571Y73042857D01*
X67673571Y73042857D02*
X67887857Y72900000D01*
X67887857Y72900000D02*
X68030714Y72757143D01*
X68030714Y72757143D02*
X68102142Y72614286D01*
X67673571Y73971428D02*
X67673571Y74900000D01*
X67673571Y74900000D02*
X68245000Y74400000D01*
X68245000Y74400000D02*
X68245000Y74614285D01*
X68245000Y74614285D02*
X68316428Y74757142D01*
X68316428Y74757142D02*
X68387857Y74828571D01*
X68387857Y74828571D02*
X68530714Y74900000D01*
X68530714Y74900000D02*
X68887857Y74900000D01*
X68887857Y74900000D02*
X69030714Y74828571D01*
X69030714Y74828571D02*
X69102142Y74757142D01*
X69102142Y74757142D02*
X69173571Y74614285D01*
X69173571Y74614285D02*
X69173571Y74185714D01*
X69173571Y74185714D02*
X69102142Y74042857D01*
X69102142Y74042857D02*
X69030714Y73971428D01*
X68316428Y75757142D02*
X68245000Y75614285D01*
X68245000Y75614285D02*
X68173571Y75542856D01*
X68173571Y75542856D02*
X68030714Y75471428D01*
X68030714Y75471428D02*
X67959285Y75471428D01*
X67959285Y75471428D02*
X67816428Y75542856D01*
X67816428Y75542856D02*
X67745000Y75614285D01*
X67745000Y75614285D02*
X67673571Y75757142D01*
X67673571Y75757142D02*
X67673571Y76042856D01*
X67673571Y76042856D02*
X67745000Y76185713D01*
X67745000Y76185713D02*
X67816428Y76257142D01*
X67816428Y76257142D02*
X67959285Y76328571D01*
X67959285Y76328571D02*
X68030714Y76328571D01*
X68030714Y76328571D02*
X68173571Y76257142D01*
X68173571Y76257142D02*
X68245000Y76185713D01*
X68245000Y76185713D02*
X68316428Y76042856D01*
X68316428Y76042856D02*
X68316428Y75757142D01*
X68316428Y75757142D02*
X68387857Y75614285D01*
X68387857Y75614285D02*
X68459285Y75542856D01*
X68459285Y75542856D02*
X68602142Y75471428D01*
X68602142Y75471428D02*
X68887857Y75471428D01*
X68887857Y75471428D02*
X69030714Y75542856D01*
X69030714Y75542856D02*
X69102142Y75614285D01*
X69102142Y75614285D02*
X69173571Y75757142D01*
X69173571Y75757142D02*
X69173571Y76042856D01*
X69173571Y76042856D02*
X69102142Y76185713D01*
X69102142Y76185713D02*
X69030714Y76257142D01*
X69030714Y76257142D02*
X68887857Y76328571D01*
X68887857Y76328571D02*
X68602142Y76328571D01*
X68602142Y76328571D02*
X68459285Y76257142D01*
X68459285Y76257142D02*
X68387857Y76185713D01*
X68387857Y76185713D02*
X68316428Y76042856D01*
X55217380Y71064524D02*
X54741190Y70731191D01*
X55217380Y70493096D02*
X54217380Y70493096D01*
X54217380Y70493096D02*
X54217380Y70874048D01*
X54217380Y70874048D02*
X54265000Y70969286D01*
X54265000Y70969286D02*
X54312619Y71016905D01*
X54312619Y71016905D02*
X54407857Y71064524D01*
X54407857Y71064524D02*
X54550714Y71064524D01*
X54550714Y71064524D02*
X54645952Y71016905D01*
X54645952Y71016905D02*
X54693571Y70969286D01*
X54693571Y70969286D02*
X54741190Y70874048D01*
X54741190Y70874048D02*
X54741190Y70493096D01*
X55217380Y71493096D02*
X54217380Y71493096D01*
X54217380Y71493096D02*
X55217380Y72064524D01*
X55217380Y72064524D02*
X54217380Y72064524D01*
X55217380Y73064524D02*
X55217380Y72493096D01*
X55217380Y72778810D02*
X54217380Y72778810D01*
X54217380Y72778810D02*
X54360238Y72683572D01*
X54360238Y72683572D02*
X54455476Y72588334D01*
X54455476Y72588334D02*
X54503095Y72493096D01*
X62434761Y48691668D02*
X62482380Y48834525D01*
X62482380Y48834525D02*
X62482380Y49072620D01*
X62482380Y49072620D02*
X62434761Y49167858D01*
X62434761Y49167858D02*
X62387142Y49215477D01*
X62387142Y49215477D02*
X62291904Y49263096D01*
X62291904Y49263096D02*
X62196666Y49263096D01*
X62196666Y49263096D02*
X62101428Y49215477D01*
X62101428Y49215477D02*
X62053809Y49167858D01*
X62053809Y49167858D02*
X62006190Y49072620D01*
X62006190Y49072620D02*
X61958571Y48882144D01*
X61958571Y48882144D02*
X61910952Y48786906D01*
X61910952Y48786906D02*
X61863333Y48739287D01*
X61863333Y48739287D02*
X61768095Y48691668D01*
X61768095Y48691668D02*
X61672857Y48691668D01*
X61672857Y48691668D02*
X61577619Y48739287D01*
X61577619Y48739287D02*
X61530000Y48786906D01*
X61530000Y48786906D02*
X61482380Y48882144D01*
X61482380Y48882144D02*
X61482380Y49120239D01*
X61482380Y49120239D02*
X61530000Y49263096D01*
X61482380Y49596430D02*
X62482380Y49834525D01*
X62482380Y49834525D02*
X61768095Y50025001D01*
X61768095Y50025001D02*
X62482380Y50215477D01*
X62482380Y50215477D02*
X61482380Y50453572D01*
X62482380Y51358334D02*
X62482380Y50786906D01*
X62482380Y51072620D02*
X61482380Y51072620D01*
X61482380Y51072620D02*
X61625238Y50977382D01*
X61625238Y50977382D02*
X61720476Y50882144D01*
X61720476Y50882144D02*
X61768095Y50786906D01*
X83833333Y84777858D02*
X83785714Y84730239D01*
X83785714Y84730239D02*
X83642857Y84682620D01*
X83642857Y84682620D02*
X83547619Y84682620D01*
X83547619Y84682620D02*
X83404762Y84730239D01*
X83404762Y84730239D02*
X83309524Y84825477D01*
X83309524Y84825477D02*
X83261905Y84920715D01*
X83261905Y84920715D02*
X83214286Y85111191D01*
X83214286Y85111191D02*
X83214286Y85254048D01*
X83214286Y85254048D02*
X83261905Y85444524D01*
X83261905Y85444524D02*
X83309524Y85539762D01*
X83309524Y85539762D02*
X83404762Y85635000D01*
X83404762Y85635000D02*
X83547619Y85682620D01*
X83547619Y85682620D02*
X83642857Y85682620D01*
X83642857Y85682620D02*
X83785714Y85635000D01*
X83785714Y85635000D02*
X83833333Y85587381D01*
X84166667Y85682620D02*
X84785714Y85682620D01*
X84785714Y85682620D02*
X84452381Y85301667D01*
X84452381Y85301667D02*
X84595238Y85301667D01*
X84595238Y85301667D02*
X84690476Y85254048D01*
X84690476Y85254048D02*
X84738095Y85206429D01*
X84738095Y85206429D02*
X84785714Y85111191D01*
X84785714Y85111191D02*
X84785714Y84873096D01*
X84785714Y84873096D02*
X84738095Y84777858D01*
X84738095Y84777858D02*
X84690476Y84730239D01*
X84690476Y84730239D02*
X84595238Y84682620D01*
X84595238Y84682620D02*
X84309524Y84682620D01*
X84309524Y84682620D02*
X84214286Y84730239D01*
X84214286Y84730239D02*
X84166667Y84777858D01*
X80444761Y58222620D02*
X80111428Y58698810D01*
X79873333Y58222620D02*
X79873333Y59222620D01*
X79873333Y59222620D02*
X80254285Y59222620D01*
X80254285Y59222620D02*
X80349523Y59175000D01*
X80349523Y59175000D02*
X80397142Y59127381D01*
X80397142Y59127381D02*
X80444761Y59032143D01*
X80444761Y59032143D02*
X80444761Y58889286D01*
X80444761Y58889286D02*
X80397142Y58794048D01*
X80397142Y58794048D02*
X80349523Y58746429D01*
X80349523Y58746429D02*
X80254285Y58698810D01*
X80254285Y58698810D02*
X79873333Y58698810D01*
X80730476Y59222620D02*
X81063809Y58222620D01*
X81063809Y58222620D02*
X81397142Y59222620D01*
X82254285Y58222620D02*
X81682857Y58222620D01*
X81968571Y58222620D02*
X81968571Y59222620D01*
X81968571Y59222620D02*
X81873333Y59079762D01*
X81873333Y59079762D02*
X81778095Y58984524D01*
X81778095Y58984524D02*
X81682857Y58936905D01*
X66358333Y58157620D02*
X66025000Y58633810D01*
X65786905Y58157620D02*
X65786905Y59157620D01*
X65786905Y59157620D02*
X66167857Y59157620D01*
X66167857Y59157620D02*
X66263095Y59110000D01*
X66263095Y59110000D02*
X66310714Y59062381D01*
X66310714Y59062381D02*
X66358333Y58967143D01*
X66358333Y58967143D02*
X66358333Y58824286D01*
X66358333Y58824286D02*
X66310714Y58729048D01*
X66310714Y58729048D02*
X66263095Y58681429D01*
X66263095Y58681429D02*
X66167857Y58633810D01*
X66167857Y58633810D02*
X65786905Y58633810D01*
X67310714Y58157620D02*
X66739286Y58157620D01*
X67025000Y58157620D02*
X67025000Y59157620D01*
X67025000Y59157620D02*
X66929762Y59014762D01*
X66929762Y59014762D02*
X66834524Y58919524D01*
X66834524Y58919524D02*
X66739286Y58871905D01*
X73433333Y84727858D02*
X73385714Y84680239D01*
X73385714Y84680239D02*
X73242857Y84632620D01*
X73242857Y84632620D02*
X73147619Y84632620D01*
X73147619Y84632620D02*
X73004762Y84680239D01*
X73004762Y84680239D02*
X72909524Y84775477D01*
X72909524Y84775477D02*
X72861905Y84870715D01*
X72861905Y84870715D02*
X72814286Y85061191D01*
X72814286Y85061191D02*
X72814286Y85204048D01*
X72814286Y85204048D02*
X72861905Y85394524D01*
X72861905Y85394524D02*
X72909524Y85489762D01*
X72909524Y85489762D02*
X73004762Y85585000D01*
X73004762Y85585000D02*
X73147619Y85632620D01*
X73147619Y85632620D02*
X73242857Y85632620D01*
X73242857Y85632620D02*
X73385714Y85585000D01*
X73385714Y85585000D02*
X73433333Y85537381D01*
X73814286Y85537381D02*
X73861905Y85585000D01*
X73861905Y85585000D02*
X73957143Y85632620D01*
X73957143Y85632620D02*
X74195238Y85632620D01*
X74195238Y85632620D02*
X74290476Y85585000D01*
X74290476Y85585000D02*
X74338095Y85537381D01*
X74338095Y85537381D02*
X74385714Y85442143D01*
X74385714Y85442143D02*
X74385714Y85346905D01*
X74385714Y85346905D02*
X74338095Y85204048D01*
X74338095Y85204048D02*
X73766667Y84632620D01*
X73766667Y84632620D02*
X74385714Y84632620D01*
X84852142Y96202834D02*
X84899761Y96155215D01*
X84899761Y96155215D02*
X84947380Y96012358D01*
X84947380Y96012358D02*
X84947380Y95917120D01*
X84947380Y95917120D02*
X84899761Y95774263D01*
X84899761Y95774263D02*
X84804523Y95679025D01*
X84804523Y95679025D02*
X84709285Y95631406D01*
X84709285Y95631406D02*
X84518809Y95583787D01*
X84518809Y95583787D02*
X84375952Y95583787D01*
X84375952Y95583787D02*
X84185476Y95631406D01*
X84185476Y95631406D02*
X84090238Y95679025D01*
X84090238Y95679025D02*
X83995000Y95774263D01*
X83995000Y95774263D02*
X83947380Y95917120D01*
X83947380Y95917120D02*
X83947380Y96012358D01*
X83947380Y96012358D02*
X83995000Y96155215D01*
X83995000Y96155215D02*
X84042619Y96202834D01*
X84947380Y97155215D02*
X84947380Y96583787D01*
X84947380Y96869501D02*
X83947380Y96869501D01*
X83947380Y96869501D02*
X84090238Y96774263D01*
X84090238Y96774263D02*
X84185476Y96679025D01*
X84185476Y96679025D02*
X84233095Y96583787D01*
X5156666Y90742620D02*
X5156666Y90028334D01*
X5156666Y90028334D02*
X5109047Y89885477D01*
X5109047Y89885477D02*
X5013809Y89790239D01*
X5013809Y89790239D02*
X4870952Y89742620D01*
X4870952Y89742620D02*
X4775714Y89742620D01*
X6061428Y90409286D02*
X6061428Y89742620D01*
X5823333Y90790239D02*
X5585238Y90075953D01*
X5585238Y90075953D02*
X6204285Y90075953D01*
X27138095Y79132620D02*
X27138095Y78323096D01*
X27138095Y78323096D02*
X27185714Y78227858D01*
X27185714Y78227858D02*
X27233333Y78180239D01*
X27233333Y78180239D02*
X27328571Y78132620D01*
X27328571Y78132620D02*
X27519047Y78132620D01*
X27519047Y78132620D02*
X27614285Y78180239D01*
X27614285Y78180239D02*
X27661904Y78227858D01*
X27661904Y78227858D02*
X27709523Y78323096D01*
X27709523Y78323096D02*
X27709523Y79132620D01*
X28090476Y79132620D02*
X28709523Y79132620D01*
X28709523Y79132620D02*
X28376190Y78751667D01*
X28376190Y78751667D02*
X28519047Y78751667D01*
X28519047Y78751667D02*
X28614285Y78704048D01*
X28614285Y78704048D02*
X28661904Y78656429D01*
X28661904Y78656429D02*
X28709523Y78561191D01*
X28709523Y78561191D02*
X28709523Y78323096D01*
X28709523Y78323096D02*
X28661904Y78227858D01*
X28661904Y78227858D02*
X28614285Y78180239D01*
X28614285Y78180239D02*
X28519047Y78132620D01*
X28519047Y78132620D02*
X28233333Y78132620D01*
X28233333Y78132620D02*
X28138095Y78180239D01*
X28138095Y78180239D02*
X28090476Y78227858D01*
X47196666Y81302620D02*
X47196666Y80588334D01*
X47196666Y80588334D02*
X47149047Y80445477D01*
X47149047Y80445477D02*
X47053809Y80350239D01*
X47053809Y80350239D02*
X46910952Y80302620D01*
X46910952Y80302620D02*
X46815714Y80302620D01*
X47625238Y81207381D02*
X47672857Y81255000D01*
X47672857Y81255000D02*
X47768095Y81302620D01*
X47768095Y81302620D02*
X48006190Y81302620D01*
X48006190Y81302620D02*
X48101428Y81255000D01*
X48101428Y81255000D02*
X48149047Y81207381D01*
X48149047Y81207381D02*
X48196666Y81112143D01*
X48196666Y81112143D02*
X48196666Y81016905D01*
X48196666Y81016905D02*
X48149047Y80874048D01*
X48149047Y80874048D02*
X47577619Y80302620D01*
X47577619Y80302620D02*
X48196666Y80302620D01*
X63538095Y82732620D02*
X63538095Y81923096D01*
X63538095Y81923096D02*
X63585714Y81827858D01*
X63585714Y81827858D02*
X63633333Y81780239D01*
X63633333Y81780239D02*
X63728571Y81732620D01*
X63728571Y81732620D02*
X63919047Y81732620D01*
X63919047Y81732620D02*
X64014285Y81780239D01*
X64014285Y81780239D02*
X64061904Y81827858D01*
X64061904Y81827858D02*
X64109523Y81923096D01*
X64109523Y81923096D02*
X64109523Y82732620D01*
X65109523Y81732620D02*
X64538095Y81732620D01*
X64823809Y81732620D02*
X64823809Y82732620D01*
X64823809Y82732620D02*
X64728571Y82589762D01*
X64728571Y82589762D02*
X64633333Y82494524D01*
X64633333Y82494524D02*
X64538095Y82446905D01*
X19107380Y42636667D02*
X19821666Y42636667D01*
X19821666Y42636667D02*
X19964523Y42589048D01*
X19964523Y42589048D02*
X20059761Y42493810D01*
X20059761Y42493810D02*
X20107380Y42350953D01*
X20107380Y42350953D02*
X20107380Y42255715D01*
X19107380Y43017620D02*
X19107380Y43636667D01*
X19107380Y43636667D02*
X19488333Y43303334D01*
X19488333Y43303334D02*
X19488333Y43446191D01*
X19488333Y43446191D02*
X19535952Y43541429D01*
X19535952Y43541429D02*
X19583571Y43589048D01*
X19583571Y43589048D02*
X19678809Y43636667D01*
X19678809Y43636667D02*
X19916904Y43636667D01*
X19916904Y43636667D02*
X20012142Y43589048D01*
X20012142Y43589048D02*
X20059761Y43541429D01*
X20059761Y43541429D02*
X20107380Y43446191D01*
X20107380Y43446191D02*
X20107380Y43160477D01*
X20107380Y43160477D02*
X20059761Y43065239D01*
X20059761Y43065239D02*
X20012142Y43017620D01*
X23117380Y92481667D02*
X23831666Y92481667D01*
X23831666Y92481667D02*
X23974523Y92434048D01*
X23974523Y92434048D02*
X24069761Y92338810D01*
X24069761Y92338810D02*
X24117380Y92195953D01*
X24117380Y92195953D02*
X24117380Y92100715D01*
X24117380Y93481667D02*
X24117380Y92910239D01*
X24117380Y93195953D02*
X23117380Y93195953D01*
X23117380Y93195953D02*
X23260238Y93100715D01*
X23260238Y93100715D02*
X23355476Y93005477D01*
X23355476Y93005477D02*
X23403095Y92910239D01*
X5156666Y61872620D02*
X5156666Y61158334D01*
X5156666Y61158334D02*
X5109047Y61015477D01*
X5109047Y61015477D02*
X5013809Y60920239D01*
X5013809Y60920239D02*
X4870952Y60872620D01*
X4870952Y60872620D02*
X4775714Y60872620D01*
X6061428Y61872620D02*
X5870952Y61872620D01*
X5870952Y61872620D02*
X5775714Y61825000D01*
X5775714Y61825000D02*
X5728095Y61777381D01*
X5728095Y61777381D02*
X5632857Y61634524D01*
X5632857Y61634524D02*
X5585238Y61444048D01*
X5585238Y61444048D02*
X5585238Y61063096D01*
X5585238Y61063096D02*
X5632857Y60967858D01*
X5632857Y60967858D02*
X5680476Y60920239D01*
X5680476Y60920239D02*
X5775714Y60872620D01*
X5775714Y60872620D02*
X5966190Y60872620D01*
X5966190Y60872620D02*
X6061428Y60920239D01*
X6061428Y60920239D02*
X6109047Y60967858D01*
X6109047Y60967858D02*
X6156666Y61063096D01*
X6156666Y61063096D02*
X6156666Y61301191D01*
X6156666Y61301191D02*
X6109047Y61396429D01*
X6109047Y61396429D02*
X6061428Y61444048D01*
X6061428Y61444048D02*
X5966190Y61491667D01*
X5966190Y61491667D02*
X5775714Y61491667D01*
X5775714Y61491667D02*
X5680476Y61444048D01*
X5680476Y61444048D02*
X5632857Y61396429D01*
X5632857Y61396429D02*
X5585238Y61301191D01*
X34933333Y80877858D02*
X34885714Y80830239D01*
X34885714Y80830239D02*
X34742857Y80782620D01*
X34742857Y80782620D02*
X34647619Y80782620D01*
X34647619Y80782620D02*
X34504762Y80830239D01*
X34504762Y80830239D02*
X34409524Y80925477D01*
X34409524Y80925477D02*
X34361905Y81020715D01*
X34361905Y81020715D02*
X34314286Y81211191D01*
X34314286Y81211191D02*
X34314286Y81354048D01*
X34314286Y81354048D02*
X34361905Y81544524D01*
X34361905Y81544524D02*
X34409524Y81639762D01*
X34409524Y81639762D02*
X34504762Y81735000D01*
X34504762Y81735000D02*
X34647619Y81782620D01*
X34647619Y81782620D02*
X34742857Y81782620D01*
X34742857Y81782620D02*
X34885714Y81735000D01*
X34885714Y81735000D02*
X34933333Y81687381D01*
X35790476Y81449286D02*
X35790476Y80782620D01*
X35552381Y81830239D02*
X35314286Y81115953D01*
X35314286Y81115953D02*
X35933333Y81115953D01*
X75838095Y82532620D02*
X75838095Y81723096D01*
X75838095Y81723096D02*
X75885714Y81627858D01*
X75885714Y81627858D02*
X75933333Y81580239D01*
X75933333Y81580239D02*
X76028571Y81532620D01*
X76028571Y81532620D02*
X76219047Y81532620D01*
X76219047Y81532620D02*
X76314285Y81580239D01*
X76314285Y81580239D02*
X76361904Y81627858D01*
X76361904Y81627858D02*
X76409523Y81723096D01*
X76409523Y81723096D02*
X76409523Y82532620D01*
X76838095Y82437381D02*
X76885714Y82485000D01*
X76885714Y82485000D02*
X76980952Y82532620D01*
X76980952Y82532620D02*
X77219047Y82532620D01*
X77219047Y82532620D02*
X77314285Y82485000D01*
X77314285Y82485000D02*
X77361904Y82437381D01*
X77361904Y82437381D02*
X77409523Y82342143D01*
X77409523Y82342143D02*
X77409523Y82246905D01*
X77409523Y82246905D02*
X77361904Y82104048D01*
X77361904Y82104048D02*
X76790476Y81532620D01*
X76790476Y81532620D02*
X77409523Y81532620D01*
X6266666Y3052620D02*
X6266666Y2338334D01*
X6266666Y2338334D02*
X6219047Y2195477D01*
X6219047Y2195477D02*
X6123809Y2100239D01*
X6123809Y2100239D02*
X5980952Y2052620D01*
X5980952Y2052620D02*
X5885714Y2052620D01*
X7219047Y3052620D02*
X6742857Y3052620D01*
X6742857Y3052620D02*
X6695238Y2576429D01*
X6695238Y2576429D02*
X6742857Y2624048D01*
X6742857Y2624048D02*
X6838095Y2671667D01*
X6838095Y2671667D02*
X7076190Y2671667D01*
X7076190Y2671667D02*
X7171428Y2624048D01*
X7171428Y2624048D02*
X7219047Y2576429D01*
X7219047Y2576429D02*
X7266666Y2481191D01*
X7266666Y2481191D02*
X7266666Y2243096D01*
X7266666Y2243096D02*
X7219047Y2147858D01*
X7219047Y2147858D02*
X7171428Y2100239D01*
X7171428Y2100239D02*
X7076190Y2052620D01*
X7076190Y2052620D02*
X6838095Y2052620D01*
X6838095Y2052620D02*
X6742857Y2100239D01*
X6742857Y2100239D02*
X6695238Y2147858D01*
D13*
X55850000Y58885000D02*
X58650000Y58885000D01*
X58650000Y58885000D02*
X58650000Y82085000D01*
X55850000Y61595000D02*
X58650000Y61595000D01*
X55850000Y82085000D02*
X55850000Y58885000D01*
X58650000Y82085000D02*
X55850000Y82085000D01*
X63115000Y48695000D02*
X63115000Y50025000D01*
X64445000Y48695000D02*
X63115000Y48695000D01*
X65715000Y48695000D02*
X70855000Y48695000D01*
X65715000Y48695000D02*
X65715000Y51355000D01*
X70855000Y48695000D02*
X70855000Y51355000D01*
X65715000Y51355000D02*
X70855000Y51355000D01*
X83371000Y83920000D02*
X84629000Y83920000D01*
X83371000Y82080000D02*
X84629000Y82080000D01*
X77420000Y57460000D02*
X77420000Y50620000D01*
X77420000Y57460000D02*
X80450000Y57460000D01*
X77420000Y50620000D02*
X80450000Y50620000D01*
X81750000Y57460000D02*
X84660000Y57460000D01*
X81750000Y50620000D02*
X84660000Y50620000D01*
X84660000Y57460000D02*
X84660000Y50620000D01*
X64485000Y56025000D02*
X65255000Y56025000D01*
X65255000Y57395000D02*
X65255000Y54655000D01*
X65255000Y54655000D02*
X71795000Y54655000D01*
X71795000Y57395000D02*
X65255000Y57395000D01*
X71795000Y54655000D02*
X71795000Y57395000D01*
X72565000Y56025000D02*
X71795000Y56025000D01*
X70871000Y83920000D02*
X72129000Y83920000D01*
X70871000Y82080000D02*
X72129000Y82080000D01*
X82915000Y89294725D02*
X82915000Y89794725D01*
X82665000Y89544725D02*
X83165000Y89544725D01*
X81810000Y92099500D02*
X86970000Y92099500D01*
X81810000Y92139500D02*
X86970000Y92139500D01*
X81811000Y92179500D02*
X86969000Y92179500D01*
X81812000Y92219500D02*
X86968000Y92219500D01*
X81814000Y92259500D02*
X86966000Y92259500D01*
X81817000Y92299500D02*
X86963000Y92299500D01*
X81821000Y92339500D02*
X83350000Y92339500D01*
X85430000Y92339500D02*
X86959000Y92339500D01*
X81825000Y92379500D02*
X83350000Y92379500D01*
X85430000Y92379500D02*
X86955000Y92379500D01*
X81829000Y92419500D02*
X83350000Y92419500D01*
X85430000Y92419500D02*
X86951000Y92419500D01*
X81834000Y92459500D02*
X83350000Y92459500D01*
X85430000Y92459500D02*
X86946000Y92459500D01*
X81840000Y92499500D02*
X83350000Y92499500D01*
X85430000Y92499500D02*
X86940000Y92499500D01*
X81847000Y92539500D02*
X83350000Y92539500D01*
X85430000Y92539500D02*
X86933000Y92539500D01*
X81854000Y92579500D02*
X83350000Y92579500D01*
X85430000Y92579500D02*
X86926000Y92579500D01*
X81862000Y92619500D02*
X83350000Y92619500D01*
X85430000Y92619500D02*
X86918000Y92619500D01*
X81870000Y92659500D02*
X83350000Y92659500D01*
X85430000Y92659500D02*
X86910000Y92659500D01*
X81879000Y92699500D02*
X83350000Y92699500D01*
X85430000Y92699500D02*
X86901000Y92699500D01*
X81889000Y92739500D02*
X83350000Y92739500D01*
X85430000Y92739500D02*
X86891000Y92739500D01*
X81899000Y92779500D02*
X83350000Y92779500D01*
X85430000Y92779500D02*
X86881000Y92779500D01*
X81910000Y92820500D02*
X83350000Y92820500D01*
X85430000Y92820500D02*
X86870000Y92820500D01*
X81922000Y92860500D02*
X83350000Y92860500D01*
X85430000Y92860500D02*
X86858000Y92860500D01*
X81935000Y92900500D02*
X83350000Y92900500D01*
X85430000Y92900500D02*
X86845000Y92900500D01*
X81948000Y92940500D02*
X83350000Y92940500D01*
X85430000Y92940500D02*
X86832000Y92940500D01*
X81962000Y92980500D02*
X83350000Y92980500D01*
X85430000Y92980500D02*
X86818000Y92980500D01*
X81976000Y93020500D02*
X83350000Y93020500D01*
X85430000Y93020500D02*
X86804000Y93020500D01*
X81992000Y93060500D02*
X83350000Y93060500D01*
X85430000Y93060500D02*
X86788000Y93060500D01*
X82008000Y93100500D02*
X83350000Y93100500D01*
X85430000Y93100500D02*
X86772000Y93100500D01*
X82025000Y93140500D02*
X83350000Y93140500D01*
X85430000Y93140500D02*
X86755000Y93140500D01*
X82042000Y93180500D02*
X83350000Y93180500D01*
X85430000Y93180500D02*
X86738000Y93180500D01*
X82061000Y93220500D02*
X83350000Y93220500D01*
X85430000Y93220500D02*
X86719000Y93220500D01*
X82080000Y93260500D02*
X83350000Y93260500D01*
X85430000Y93260500D02*
X86700000Y93260500D01*
X82100000Y93300500D02*
X83350000Y93300500D01*
X85430000Y93300500D02*
X86680000Y93300500D01*
X82122000Y93340500D02*
X83350000Y93340500D01*
X85430000Y93340500D02*
X86658000Y93340500D01*
X82143000Y93380500D02*
X83350000Y93380500D01*
X85430000Y93380500D02*
X86637000Y93380500D01*
X82166000Y93420500D02*
X83350000Y93420500D01*
X85430000Y93420500D02*
X86614000Y93420500D01*
X82190000Y93460500D02*
X83350000Y93460500D01*
X85430000Y93460500D02*
X86590000Y93460500D01*
X82215000Y93500500D02*
X83350000Y93500500D01*
X85430000Y93500500D02*
X86565000Y93500500D01*
X82241000Y93540500D02*
X83350000Y93540500D01*
X85430000Y93540500D02*
X86539000Y93540500D01*
X82268000Y93580500D02*
X83350000Y93580500D01*
X85430000Y93580500D02*
X86512000Y93580500D01*
X82295000Y93620500D02*
X83350000Y93620500D01*
X85430000Y93620500D02*
X86485000Y93620500D01*
X82325000Y93660500D02*
X83350000Y93660500D01*
X85430000Y93660500D02*
X86455000Y93660500D01*
X82355000Y93700500D02*
X83350000Y93700500D01*
X85430000Y93700500D02*
X86425000Y93700500D01*
X82386000Y93740500D02*
X83350000Y93740500D01*
X85430000Y93740500D02*
X86394000Y93740500D01*
X82419000Y93780500D02*
X83350000Y93780500D01*
X85430000Y93780500D02*
X86361000Y93780500D01*
X82453000Y93820500D02*
X83350000Y93820500D01*
X85430000Y93820500D02*
X86327000Y93820500D01*
X82489000Y93860500D02*
X83350000Y93860500D01*
X85430000Y93860500D02*
X86291000Y93860500D01*
X82526000Y93900500D02*
X83350000Y93900500D01*
X85430000Y93900500D02*
X86254000Y93900500D01*
X82564000Y93940500D02*
X83350000Y93940500D01*
X85430000Y93940500D02*
X86216000Y93940500D01*
X82605000Y93980500D02*
X83350000Y93980500D01*
X85430000Y93980500D02*
X86175000Y93980500D01*
X82647000Y94020500D02*
X83350000Y94020500D01*
X85430000Y94020500D02*
X86133000Y94020500D01*
X82691000Y94060500D02*
X83350000Y94060500D01*
X85430000Y94060500D02*
X86089000Y94060500D01*
X82737000Y94100500D02*
X83350000Y94100500D01*
X85430000Y94100500D02*
X86043000Y94100500D01*
X82785000Y94140500D02*
X83350000Y94140500D01*
X85430000Y94140500D02*
X85995000Y94140500D01*
X82836000Y94180500D02*
X83350000Y94180500D01*
X85430000Y94180500D02*
X85944000Y94180500D01*
X82890000Y94220500D02*
X83350000Y94220500D01*
X85430000Y94220500D02*
X85890000Y94220500D01*
X82947000Y94260500D02*
X83350000Y94260500D01*
X85430000Y94260500D02*
X85833000Y94260500D01*
X83007000Y94300500D02*
X83350000Y94300500D01*
X85430000Y94300500D02*
X85773000Y94300500D01*
X83071000Y94340500D02*
X83350000Y94340500D01*
X85430000Y94340500D02*
X85709000Y94340500D01*
X83139000Y94380500D02*
X83350000Y94380500D01*
X85430000Y94380500D02*
X85641000Y94380500D01*
X83212000Y94420500D02*
X85568000Y94420500D01*
X83292000Y94460500D02*
X85488000Y94460500D01*
X83379000Y94500500D02*
X85401000Y94500500D01*
X83475000Y94540500D02*
X85305000Y94540500D01*
X83585000Y94580500D02*
X85195000Y94580500D01*
X83713000Y94620500D02*
X85067000Y94620500D01*
X83872000Y94660500D02*
X84908000Y94660500D01*
X84106000Y94700500D02*
X84674000Y94700500D01*
X87010000Y92099500D02*
G75*
G03*
X87010000Y92099500I-2620000J0D01*
G01*
X2890000Y89110000D02*
X4220000Y89110000D01*
X2890000Y87780000D02*
X2890000Y89110000D01*
X2890000Y86510000D02*
X2890000Y71210000D01*
X2890000Y86510000D02*
X5490000Y86510000D01*
X2890000Y71210000D02*
X8090000Y71210000D01*
X5490000Y89110000D02*
X8090000Y89110000D01*
X5490000Y86510000D02*
X5490000Y89110000D01*
X8090000Y89110000D02*
X8090000Y71210000D01*
X27050000Y77290000D02*
X27050000Y59270000D01*
X27050000Y59270000D02*
X37330000Y59270000D01*
X29540000Y77230000D02*
X29540000Y59330000D01*
X29540000Y59330000D02*
X34840000Y59330000D01*
X31190000Y77230000D02*
X29540000Y77230000D01*
X34840000Y77230000D02*
X33190000Y77230000D01*
X34840000Y59330000D02*
X34840000Y77230000D01*
X37330000Y77290000D02*
X27050000Y77290000D01*
X37330000Y59270000D02*
X37330000Y77290000D01*
X31190000Y77230000D02*
G75*
G03*
X33190000Y77230000I1000000J0D01*
G01*
X44930000Y79670000D02*
X46260000Y79670000D01*
X44930000Y78340000D02*
X44930000Y79670000D01*
X44930000Y77070000D02*
X44930000Y59230000D01*
X44930000Y77070000D02*
X47530000Y77070000D01*
X44930000Y59230000D02*
X50130000Y59230000D01*
X47530000Y79670000D02*
X50130000Y79670000D01*
X47530000Y77070000D02*
X47530000Y79670000D01*
X50130000Y79670000D02*
X50130000Y59230000D01*
X63120000Y81090000D02*
X63120000Y60530000D01*
X63120000Y60530000D02*
X73400000Y60530000D01*
X65610000Y81030000D02*
X65610000Y60590000D01*
X65610000Y60590000D02*
X70910000Y60590000D01*
X67260000Y81030000D02*
X65610000Y81030000D01*
X70910000Y81030000D02*
X69260000Y81030000D01*
X70910000Y60590000D02*
X70910000Y81030000D01*
X73400000Y81090000D02*
X63120000Y81090000D01*
X73400000Y60530000D02*
X73400000Y81090000D01*
X67260000Y81030000D02*
G75*
G03*
X69260000Y81030000I1000000J0D01*
G01*
X20740000Y41640000D02*
X20740000Y42970000D01*
X22070000Y41640000D02*
X20740000Y41640000D01*
X23340000Y41640000D02*
X61500000Y41640000D01*
X23340000Y41640000D02*
X23340000Y44300000D01*
X61500000Y41640000D02*
X61500000Y44300000D01*
X23340000Y44300000D02*
X61500000Y44300000D01*
X24750000Y85890000D02*
X24750000Y87160000D01*
X26020000Y85890000D02*
X24750000Y85890000D01*
X28180000Y88202929D02*
X28180000Y88657071D01*
X28940000Y88202929D02*
X28940000Y88657071D01*
X30720000Y88202929D02*
X30720000Y88657071D01*
X31480000Y88202929D02*
X31480000Y88657071D01*
X33260000Y88202929D02*
X33260000Y88657071D01*
X34020000Y88202929D02*
X34020000Y88657071D01*
X35800000Y88202929D02*
X35800000Y88657071D01*
X36560000Y88202929D02*
X36560000Y88657071D01*
X38340000Y88202929D02*
X38340000Y88657071D01*
X39100000Y88202929D02*
X39100000Y88657071D01*
X40880000Y88202929D02*
X40880000Y88657071D01*
X41640000Y88202929D02*
X41640000Y88657071D01*
X43420000Y88202929D02*
X43420000Y88657071D01*
X44180000Y88202929D02*
X44180000Y88657071D01*
X45960000Y88202929D02*
X45960000Y88657071D01*
X46720000Y88202929D02*
X46720000Y88657071D01*
X48500000Y88202929D02*
X48500000Y88657071D01*
X49260000Y88202929D02*
X49260000Y88657071D01*
X51040000Y88202929D02*
X51040000Y88657071D01*
X51800000Y88202929D02*
X51800000Y88657071D01*
X53580000Y88202929D02*
X53580000Y88657071D01*
X54340000Y88202929D02*
X54340000Y88657071D01*
X56120000Y88202929D02*
X56120000Y88657071D01*
X56880000Y88202929D02*
X56880000Y88657071D01*
X58660000Y88202929D02*
X58660000Y88657071D01*
X59420000Y88202929D02*
X59420000Y88657071D01*
X61200000Y88202929D02*
X61200000Y88657071D01*
X61960000Y88202929D02*
X61960000Y88657071D01*
X63740000Y88202929D02*
X63740000Y88657071D01*
X64500000Y88202929D02*
X64500000Y88657071D01*
X66280000Y88202929D02*
X66280000Y88657071D01*
X67040000Y88202929D02*
X67040000Y88657071D01*
X68820000Y88202929D02*
X68820000Y88657071D01*
X69580000Y88202929D02*
X69580000Y88657071D01*
X71360000Y88202929D02*
X71360000Y88657071D01*
X72120000Y88202929D02*
X72120000Y88657071D01*
X73900000Y88202929D02*
X73900000Y88657071D01*
X74660000Y88202929D02*
X74660000Y88657071D01*
X25640000Y88270000D02*
X25640000Y88657071D01*
X26400000Y88270000D02*
X26400000Y88657071D01*
X25640000Y90742929D02*
X25640000Y91140000D01*
X26400000Y90742929D02*
X26400000Y91140000D01*
X28180000Y90742929D02*
X28180000Y91140000D01*
X28940000Y90742929D02*
X28940000Y91140000D01*
X30720000Y90742929D02*
X30720000Y91140000D01*
X31480000Y90742929D02*
X31480000Y91140000D01*
X33260000Y90742929D02*
X33260000Y91140000D01*
X34020000Y90742929D02*
X34020000Y91140000D01*
X35800000Y90742929D02*
X35800000Y91140000D01*
X36560000Y90742929D02*
X36560000Y91140000D01*
X38340000Y90742929D02*
X38340000Y91140000D01*
X39100000Y90742929D02*
X39100000Y91140000D01*
X40880000Y90742929D02*
X40880000Y91140000D01*
X41640000Y90742929D02*
X41640000Y91140000D01*
X43420000Y90742929D02*
X43420000Y91140000D01*
X44180000Y90742929D02*
X44180000Y91140000D01*
X45960000Y90742929D02*
X45960000Y91140000D01*
X46720000Y90742929D02*
X46720000Y91140000D01*
X48500000Y90742929D02*
X48500000Y91140000D01*
X49260000Y90742929D02*
X49260000Y91140000D01*
X51040000Y90742929D02*
X51040000Y91140000D01*
X51800000Y90742929D02*
X51800000Y91140000D01*
X53580000Y90742929D02*
X53580000Y91140000D01*
X54340000Y90742929D02*
X54340000Y91140000D01*
X56120000Y90742929D02*
X56120000Y91140000D01*
X56880000Y90742929D02*
X56880000Y91140000D01*
X58660000Y90742929D02*
X58660000Y91140000D01*
X59420000Y90742929D02*
X59420000Y91140000D01*
X61200000Y90742929D02*
X61200000Y91140000D01*
X61960000Y90742929D02*
X61960000Y91140000D01*
X63740000Y90742929D02*
X63740000Y91140000D01*
X64500000Y90742929D02*
X64500000Y91140000D01*
X66280000Y90742929D02*
X66280000Y91140000D01*
X67040000Y90742929D02*
X67040000Y91140000D01*
X68820000Y90742929D02*
X68820000Y91140000D01*
X69580000Y90742929D02*
X69580000Y91140000D01*
X71360000Y90742929D02*
X71360000Y91140000D01*
X72120000Y90742929D02*
X72120000Y91140000D01*
X73900000Y90742929D02*
X73900000Y91140000D01*
X74660000Y90742929D02*
X74660000Y91140000D01*
X24690000Y91140000D02*
X75610000Y91140000D01*
X27290000Y91140000D02*
X27290000Y93800000D01*
X29830000Y91140000D02*
X29830000Y93800000D01*
X32370000Y91140000D02*
X32370000Y93800000D01*
X34910000Y91140000D02*
X34910000Y93800000D01*
X37450000Y91140000D02*
X37450000Y93800000D01*
X39990000Y91140000D02*
X39990000Y93800000D01*
X42530000Y91140000D02*
X42530000Y93800000D01*
X45070000Y91140000D02*
X45070000Y93800000D01*
X47610000Y91140000D02*
X47610000Y93800000D01*
X50150000Y91140000D02*
X50150000Y93800000D01*
X52690000Y91140000D02*
X52690000Y93800000D01*
X55230000Y91140000D02*
X55230000Y93800000D01*
X57770000Y91140000D02*
X57770000Y93800000D01*
X60310000Y91140000D02*
X60310000Y93800000D01*
X62850000Y91140000D02*
X62850000Y93800000D01*
X65390000Y91140000D02*
X65390000Y93800000D01*
X67930000Y91140000D02*
X67930000Y93800000D01*
X70470000Y91140000D02*
X70470000Y93800000D01*
X73010000Y91140000D02*
X73010000Y93800000D01*
X75610000Y91140000D02*
X75610000Y93800000D01*
X24690000Y93800000D02*
X24690000Y91140000D01*
X25640000Y93800000D02*
X25640000Y99800000D01*
X25700000Y93800000D02*
X25700000Y99800000D01*
X25820000Y93800000D02*
X25820000Y99800000D01*
X25940000Y93800000D02*
X25940000Y99800000D01*
X26060000Y93800000D02*
X26060000Y99800000D01*
X26180000Y93800000D02*
X26180000Y99800000D01*
X26300000Y93800000D02*
X26300000Y99800000D01*
X28180000Y93800000D02*
X28180000Y99800000D01*
X30720000Y93800000D02*
X30720000Y99800000D01*
X33260000Y93800000D02*
X33260000Y99800000D01*
X35800000Y93800000D02*
X35800000Y99800000D01*
X38340000Y93800000D02*
X38340000Y99800000D01*
X40880000Y93800000D02*
X40880000Y99800000D01*
X43420000Y93800000D02*
X43420000Y99800000D01*
X45960000Y93800000D02*
X45960000Y99800000D01*
X48500000Y93800000D02*
X48500000Y99800000D01*
X51040000Y93800000D02*
X51040000Y99800000D01*
X53580000Y93800000D02*
X53580000Y99800000D01*
X56120000Y93800000D02*
X56120000Y99800000D01*
X58660000Y93800000D02*
X58660000Y99800000D01*
X61200000Y93800000D02*
X61200000Y99800000D01*
X63740000Y93800000D02*
X63740000Y99800000D01*
X66280000Y93800000D02*
X66280000Y99800000D01*
X68820000Y93800000D02*
X68820000Y99800000D01*
X71360000Y93800000D02*
X71360000Y99800000D01*
X73900000Y93800000D02*
X73900000Y99800000D01*
X75610000Y93800000D02*
X24690000Y93800000D01*
X25640000Y99800000D02*
X26400000Y99800000D01*
X26400000Y99800000D02*
X26400000Y93800000D01*
X28180000Y99800000D02*
X28940000Y99800000D01*
X28940000Y99800000D02*
X28940000Y93800000D01*
X30720000Y99800000D02*
X31480000Y99800000D01*
X31480000Y99800000D02*
X31480000Y93800000D01*
X33260000Y99800000D02*
X34020000Y99800000D01*
X34020000Y99800000D02*
X34020000Y93800000D01*
X35800000Y99800000D02*
X36560000Y99800000D01*
X36560000Y99800000D02*
X36560000Y93800000D01*
X38340000Y99800000D02*
X39100000Y99800000D01*
X39100000Y99800000D02*
X39100000Y93800000D01*
X40880000Y99800000D02*
X41640000Y99800000D01*
X41640000Y99800000D02*
X41640000Y93800000D01*
X43420000Y99800000D02*
X44180000Y99800000D01*
X44180000Y99800000D02*
X44180000Y93800000D01*
X45960000Y99800000D02*
X46720000Y99800000D01*
X46720000Y99800000D02*
X46720000Y93800000D01*
X48500000Y99800000D02*
X49260000Y99800000D01*
X49260000Y99800000D02*
X49260000Y93800000D01*
X51040000Y99800000D02*
X51800000Y99800000D01*
X51800000Y99800000D02*
X51800000Y93800000D01*
X53580000Y99800000D02*
X54340000Y99800000D01*
X54340000Y99800000D02*
X54340000Y93800000D01*
X56120000Y99800000D02*
X56880000Y99800000D01*
X56880000Y99800000D02*
X56880000Y93800000D01*
X58660000Y99800000D02*
X59420000Y99800000D01*
X59420000Y99800000D02*
X59420000Y93800000D01*
X61200000Y99800000D02*
X61960000Y99800000D01*
X61960000Y99800000D02*
X61960000Y93800000D01*
X63740000Y99800000D02*
X64500000Y99800000D01*
X64500000Y99800000D02*
X64500000Y93800000D01*
X66280000Y99800000D02*
X67040000Y99800000D01*
X67040000Y99800000D02*
X67040000Y93800000D01*
X68820000Y99800000D02*
X69580000Y99800000D01*
X69580000Y99800000D02*
X69580000Y93800000D01*
X71360000Y99800000D02*
X72120000Y99800000D01*
X72120000Y99800000D02*
X72120000Y93800000D01*
X73900000Y99800000D02*
X74660000Y99800000D01*
X74660000Y99800000D02*
X74660000Y93800000D01*
X2890000Y60240000D02*
X4220000Y60240000D01*
X2890000Y58910000D02*
X2890000Y60240000D01*
X2890000Y57640000D02*
X2890000Y42340000D01*
X2890000Y57640000D02*
X5490000Y57640000D01*
X2890000Y42340000D02*
X8090000Y42340000D01*
X5490000Y60240000D02*
X8090000Y60240000D01*
X5490000Y57640000D02*
X5490000Y60240000D01*
X8090000Y60240000D02*
X8090000Y42340000D01*
X34471000Y80020000D02*
X35729000Y80020000D01*
X34471000Y78180000D02*
X35729000Y78180000D01*
X75870000Y81015000D02*
X75870000Y62995000D01*
X75870000Y62995000D02*
X86150000Y62995000D01*
X78360000Y80955000D02*
X78360000Y63055000D01*
X78360000Y63055000D02*
X83660000Y63055000D01*
X80010000Y80955000D02*
X78360000Y80955000D01*
X83660000Y80955000D02*
X82010000Y80955000D01*
X83660000Y63055000D02*
X83660000Y80955000D01*
X86150000Y81015000D02*
X75870000Y81015000D01*
X86150000Y62995000D02*
X86150000Y81015000D01*
X80010000Y80955000D02*
G75*
G03*
X82010000Y80955000I1000000J0D01*
G01*
X9200000Y3420000D02*
X7870000Y3420000D01*
X9200000Y4750000D02*
X9200000Y3420000D01*
X9200000Y6020000D02*
X9200000Y21320000D01*
X9200000Y6020000D02*
X6600000Y6020000D01*
X9200000Y21320000D02*
X4000000Y21320000D01*
X6600000Y3420000D02*
X4000000Y3420000D01*
X6600000Y6020000D02*
X6600000Y3420000D01*
X4000000Y3420000D02*
X4000000Y21320000D01*
M02*
